<?xml version="1.0" encoding="utf-8"?>
<!-- Generator: Adobe Illustrator 24.0.1, SVG Export Plug-In . SVG Version: 6.00 Build 0)  -->
<svg version="1.1" xmlns="http://www.w3.org/2000/svg" xmlns:xlink="http://www.w3.org/1999/xlink" x="0px" y="0px"
	 viewBox="0 0 750 500" style="enable-background:new 0 0 750 500;" xml:space="preserve">
<style type="text/css">
	.st0{display:none;}
	.st1{fill:#FFFFFF;}
	.st2{fill:#71BF9D;}
	.st3{fill:none;stroke:#E57E55;stroke-width:0.9971;stroke-linecap:round;stroke-linejoin:round;stroke-miterlimit:10;}
	.st4{fill:none;stroke:#E57E55;stroke-width:0.7983;stroke-linecap:round;stroke-linejoin:round;stroke-miterlimit:10;}
	.st5{fill:#FFD25A;}
	.st6{fill:#FFBE57;}
	.st7{fill:none;stroke:#FFFFFF;stroke-width:0.9735;stroke-miterlimit:10;}
	.st8{fill:#764582;}
	.st9{fill:#9D68AA;}
	.st10{fill:#FFFFFF;stroke:#764582;stroke-width:0.9736;stroke-miterlimit:10;}
	.st11{fill-rule:evenodd;clip-rule:evenodd;fill:#764582;}
	.st12{fill-rule:evenodd;clip-rule:evenodd;fill:#FFFFFF;stroke:#764582;stroke-width:1.0244;stroke-miterlimit:10;}
	.st13{fill:none;stroke:#764582;stroke-width:1.265;stroke-miterlimit:10;}
	.st14{fill:#FFFFFF;stroke:#764582;stroke-width:1.0244;stroke-linecap:round;stroke-linejoin:round;stroke-miterlimit:10;}
	.st15{opacity:0.7;fill:#A1ABAD;}
	.st16{fill:#DD4026;}
	.st17{fill:#E2E2E2;}
	.st18{fill:#FD6141;}
	.st19{fill:none;}
	.st20{fill:none;stroke:#EFE9DA;stroke-width:1.1573;stroke-linecap:round;stroke-miterlimit:10;}
	.st21{fill:none;stroke:#EFE9DA;stroke-width:1.1573;stroke-miterlimit:10;}
	.st22{fill:#3C8460;}
	.st23{opacity:0.2;fill:#764582;}
	.st24{fill:#E4BCE8;}
	.st25{fill:none;stroke:#FFFFFF;stroke-width:0.9734;stroke-miterlimit:10;}
	.st26{fill:#FDEEFF;}
	.st27{fill:#A1ABAD;}
	.st28{fill:#FFCC5A;stroke:#764582;stroke-width:0.9736;stroke-miterlimit:10;}
	.st29{fill-rule:evenodd;clip-rule:evenodd;fill:#9D68AA;}
	.st30{fill:#FFB072;}
	.st31{fill:#3E2344;}
	.st32{fill:#FFDCAE;}
	.st33{fill:#FFFFFF;stroke:#FD6141;stroke-width:1.8544;stroke-linecap:round;stroke-linejoin:round;stroke-miterlimit:10;}
	.st34{fill:#FF8976;}
	.st35{fill:#F99441;}
	.st36{clip-path:url(#SVGID_2_);fill:#FFAEC1;}
	.st37{clip-path:url(#SVGID_2_);fill:#FFB072;}
	.st38{fill:#552F5E;}
	.st39{fill:#F29353;}
	.st40{clip-path:url(#SVGID_4_);fill:#FFAEC1;}
	.st41{clip-path:url(#SVGID_4_);fill:#FFB072;}
	.st42{fill:none;stroke:#FFFFFF;stroke-width:0.4986;stroke-miterlimit:10;}
	.st43{fill-rule:evenodd;clip-rule:evenodd;fill:#FFB072;}
	.st44{fill:#E57E55;}
	.st45{opacity:0.5;fill:#E57E55;}
	.st46{opacity:0.7;fill-rule:evenodd;clip-rule:evenodd;fill:#A1ABAD;}
	.st47{fill:none;stroke:#FFFFFF;stroke-width:0.4986;stroke-linecap:round;stroke-linejoin:round;stroke-miterlimit:10;}
	.st48{fill-rule:evenodd;clip-rule:evenodd;fill:#FD6141;}
	.st49{opacity:0.5;}
	.st50{fill-rule:evenodd;clip-rule:evenodd;fill:#DD4026;}
	.st51{clip-path:url(#SVGID_6_);fill:#DD4026;}
	.st52{fill:#F7B614;}
	.st53{opacity:0.5;fill:#FFBE57;}
	.st54{clip-path:url(#SVGID_8_);fill:#DD4026;}
	.st55{fill:none;stroke:#FFFFFF;stroke-width:0.4986;stroke-linecap:round;stroke-miterlimit:10;}
	.st56{opacity:0.3;fill:#764582;}
</style>
<g id="BACKGROUND" class="st0">
	<rect class="st1" width="750" height="500"/>
</g>
<g id="OBJECTS">
	<g>
		<g>
			<path class="st2" d="M653.29,354.21c-2.32-11.95-24.52-13.93-24.52-13.93s12.97-21.64,3.77-31.43
				c-9.2-9.8-30.34,13.21-30.34,13.21s-6.98-14.54-17.36,0c0,0-17.3-13.21-32.26-6.42c-10.69,4.85-9.11,17.66-7.34,24.59H251.38
				c-0.25-0.51-0.56-1.01-0.95-1.48c-9.92-11.98-38.71-5.81-38.71-5.81s12.02-29.69-7.8-38.69c-19.83-9-42.75,8.51-42.75,8.51
				c-13.76-19.27-23.01,0-23.01,0s-28.01-30.49-40.2-17.51c-12.19,12.98,5,41.65,5,41.65s-29.42,2.63-32.49,18.46
				c-3.07,15.83,50.9,32.26,50.9,32.26l493.51,0.94C614.87,378.56,655.6,366.16,653.29,354.21z"/>
			<g>
				<path class="st3" d="M148.51,372.96c-8.87-25.14-22.35-48.64-39.57-68.98"/>
				<path class="st3" d="M148.5,373.86c0.69-19.84,2.75-39.64,6.18-59.19"/>
				<path class="st3" d="M143.17,360.09c-12.8-6.35-26.54-10.79-40.63-13.12"/>
				<path class="st3" d="M130.11,333.16c2.58-6,4.35-12.35,5.23-18.82"/>
			</g>
			<g>
				<path class="st4" d="M592.57,375.17c7.1-20.12,17.89-38.94,31.68-55.23"/>
				<path class="st4" d="M592.58,375.89c-0.55-15.89-2.2-31.73-4.94-47.39"/>
				<path class="st4" d="M596.84,364.86c10.25-5.08,21.25-8.64,32.53-10.51"/>
				<path class="st4" d="M607.3,343.3c-2.07-4.8-3.48-9.89-4.19-15.07"/>
			</g>
			<g>
				<g>
					<g>
						<path class="st1" d="M123.37,292.26c0.25,0.05,0.43,0.19,0.62,0.31c0.17,0.15,0.34,0.3,0.45,0.53c0.12,0.27,0,0.59-0.27,0.72
							c-0.11,0.05-0.23,0.06-0.34,0.04c-0.24-0.05-0.43-0.19-0.61-0.31c-0.17-0.15-0.34-0.3-0.44-0.52
							c-0.12-0.27-0.01-0.59,0.26-0.72C123.14,292.25,123.26,292.23,123.37,292.26z"/>
					</g>
					<g>
						<path class="st1" d="M125.39,293.88c0.25,0.06,0.42,0.2,0.61,0.33c0.16,0.16,0.33,0.31,0.43,0.54
							c0.11,0.27-0.02,0.59-0.29,0.71c-0.11,0.05-0.23,0.06-0.34,0.03c-0.25-0.06-0.42-0.2-0.6-0.33c-0.16-0.16-0.33-0.31-0.43-0.54
							c-0.12-0.27,0.01-0.59,0.28-0.71C125.15,293.86,125.27,293.85,125.39,293.88z"/>
					</g>
					<g>
						<path class="st1" d="M127.35,295.55c0.25,0.06,0.42,0.21,0.6,0.34c0.16,0.16,0.32,0.32,0.42,0.55
							c0.11,0.27-0.03,0.59-0.31,0.7c-0.11,0.05-0.23,0.05-0.34,0.02c-0.24-0.06-0.42-0.21-0.6-0.34c-0.16-0.16-0.32-0.32-0.41-0.55
							c-0.11-0.27,0.02-0.59,0.3-0.71C127.12,295.53,127.24,295.52,127.35,295.55z"/>
					</g>
					<g>
						<path class="st1" d="M130.74,298.62c0.24,0.07,0.41,0.22,0.59,0.37c0.15,0.17,0.31,0.33,0.39,0.57
							c0.1,0.28-0.05,0.59-0.33,0.69c-0.12,0.04-0.24,0.04-0.34,0.01c-0.24-0.07-0.41-0.22-0.58-0.37
							c-0.15-0.17-0.31-0.32-0.39-0.56c-0.1-0.28,0.05-0.59,0.32-0.7C130.51,298.59,130.63,298.59,130.74,298.62z"/>
					</g>
					<g>
						<path class="st1" d="M133.08,300.89c0.18,0.02,0.28,0.11,0.39,0.19c0.09,0.11,0.18,0.21,0.19,0.39
							c0.03,0.34-0.23,0.65-0.57,0.69c-0.04,0-0.08,0-0.12,0c-0.18-0.02-0.28-0.11-0.38-0.19c-0.08-0.11-0.18-0.21-0.19-0.38
							c-0.03-0.34,0.22-0.65,0.56-0.69C133,300.88,133.04,300.88,133.08,300.89z"/>
					</g>
					<g>
						<path class="st1" d="M135,302.87c0.18,0.02,0.28,0.11,0.38,0.2c0.08,0.11,0.17,0.22,0.18,0.39c0.02,0.35-0.25,0.64-0.59,0.67
							c-0.04,0-0.08,0-0.12,0c-0.18-0.02-0.27-0.11-0.38-0.2c-0.08-0.11-0.17-0.21-0.18-0.39c-0.02-0.34,0.24-0.64,0.58-0.68
							C134.91,302.86,134.96,302.86,135,302.87z"/>
					</g>
				</g>
				<g>
					<g>
						<path class="st1" d="M100.92,285.56c1.69-1.08,3.72-1.47,5.68-1.49c2,0.05,3.91,0.58,5.7,1.31c1.79,0.75,3.47,1.67,5.1,2.68
							c1.62,1.02,3.17,2.14,4.66,3.32c0.21,0.17,0.24,0.47,0.07,0.68c-0.16,0.2-0.45,0.24-0.65,0.1c-1.53-1.09-3.09-2.13-4.69-3.09
							c-1.6-0.97-3.24-1.85-4.95-2.54c-1.7-0.71-3.48-1.21-5.25-1.28c-1.79-0.02-3.61,0.26-5.15,1.13c-0.21,0.11-0.51,0.02-0.66-0.2
							C100.62,285.98,100.69,285.7,100.92,285.56z"/>
					</g>
					<g>
						<path class="st1" d="M100.35,287.03c-0.06,0.21-0.21,0.3-0.31,0.45c-0.13,0.12-0.25,0.25-0.46,0.3
							c-0.28,0.08-0.62-0.07-0.72-0.36c-0.03-0.09-0.03-0.19-0.01-0.29c0.05-0.23,0.18-0.39,0.31-0.55c0.14-0.15,0.33-0.25,0.55-0.3
							c0.32-0.06,0.6,0.16,0.65,0.47C100.39,286.85,100.38,286.94,100.35,287.03z"/>
					</g>
					<g>
						<path class="st1" d="M98.98,288.55c-0.01,0.22-0.1,0.37-0.19,0.52c-0.12,0.13-0.2,0.3-0.39,0.4c-0.25,0.15-0.6,0.08-0.77-0.19
							c-0.05-0.08-0.08-0.18-0.09-0.28c-0.01-0.23,0.07-0.42,0.18-0.59c0.13-0.16,0.25-0.33,0.45-0.43c0.29-0.14,0.61,0,0.74,0.28
							C98.97,288.36,98.99,288.46,98.98,288.55z"/>
					</g>
					<g>
						<path class="st1" d="M97.97,290.36c-0.08,0.37-0.19,0.73-0.3,1.08l-0.27,1.08c-0.18,0.72-0.33,1.45-0.53,2.19
							c-0.08,0.25-0.34,0.4-0.61,0.34c-0.22-0.05-0.36-0.24-0.36-0.46c-0.02-0.8,0.12-1.59,0.29-2.37l0.36-1.15
							c0.16-0.37,0.33-0.74,0.53-1.09c0.13-0.24,0.46-0.3,0.68-0.15C97.95,289.95,98.01,290.16,97.97,290.36z"/>
					</g>
					<g>
						<path class="st1" d="M96.71,296.63c0.11,0.12,0.11,0.23,0.13,0.34c-0.02,0.11-0.03,0.22-0.15,0.33
							c-0.27,0.25-0.7,0.26-0.96-0.01l-0.01-0.01c-0.11-0.12-0.11-0.24-0.13-0.36c0.02-0.12,0.03-0.23,0.15-0.35
							c0.27-0.26,0.7-0.23,0.96,0.03L96.71,296.63z"/>
					</g>
					<g>
						<path class="st1" d="M96.72,298.91c0.12,0.11,0.13,0.22,0.15,0.33c-0.01,0.11-0.01,0.23-0.13,0.34
							c-0.25,0.27-0.68,0.3-0.96,0.06l-0.01-0.01c-0.12-0.11-0.13-0.23-0.15-0.34c0.01-0.12,0.02-0.23,0.13-0.35
							c0.25-0.27,0.68-0.28,0.96-0.04L96.72,298.91z"/>
					</g>
				</g>
			</g>
			<g>
				<g>
					<g>
						<path class="st1" d="M631.86,323.42c0.06,0.26,0.01,0.5-0.02,0.74c-0.07,0.24-0.14,0.47-0.3,0.68
							c-0.2,0.24-0.54,0.28-0.77,0.08c-0.09-0.08-0.15-0.19-0.18-0.31c-0.06-0.26,0-0.49,0.03-0.73c0.07-0.23,0.12-0.46,0.29-0.67
							c0.19-0.24,0.53-0.29,0.77-0.1C631.77,323.2,631.83,323.31,631.86,323.42z"/>
					</g>
					<g>
						<path class="st1" d="M631.21,326.12c0.05,0.26-0.01,0.5-0.05,0.74c-0.08,0.23-0.16,0.46-0.33,0.66
							c-0.21,0.24-0.55,0.25-0.77,0.05c-0.09-0.09-0.15-0.2-0.17-0.31c-0.05-0.26,0.02-0.49,0.06-0.73
							c0.08-0.23,0.15-0.46,0.32-0.66c0.2-0.23,0.55-0.27,0.77-0.06C631.13,325.89,631.19,326,631.21,326.12z"/>
					</g>
					<g>
						<path class="st1" d="M630.46,328.78c0.04,0.27-0.03,0.5-0.08,0.74c-0.09,0.23-0.17,0.46-0.35,0.65
							c-0.21,0.23-0.56,0.24-0.77,0.02c-0.09-0.09-0.14-0.2-0.16-0.32c-0.04-0.26,0.03-0.49,0.09-0.73
							c0.09-0.22,0.16-0.45,0.34-0.65c0.21-0.23,0.55-0.25,0.77-0.04C630.38,328.55,630.44,328.66,630.46,328.78z"/>
					</g>
					<g>
						<path class="st1" d="M628.91,333.43c0.02,0.27-0.05,0.5-0.12,0.73c-0.1,0.22-0.19,0.45-0.38,0.63
							c-0.22,0.22-0.57,0.21-0.77-0.02c-0.08-0.09-0.13-0.21-0.14-0.33c-0.02-0.27,0.06-0.49,0.12-0.72
							c0.1-0.22,0.19-0.44,0.38-0.63c0.22-0.22,0.57-0.22,0.77,0C628.85,333.2,628.9,333.31,628.91,333.43z"/>
					</g>
					<g>
						<path class="st1" d="M627.67,336.69c0.05,0.18,0.01,0.32-0.03,0.46c-0.07,0.13-0.13,0.26-0.29,0.36
							c-0.31,0.18-0.69,0.07-0.86-0.25c-0.02-0.04-0.04-0.08-0.05-0.12c-0.05-0.18,0-0.31,0.03-0.45c0.07-0.13,0.13-0.26,0.29-0.35
							c0.31-0.18,0.69-0.07,0.86,0.24C627.65,336.61,627.66,336.65,627.67,336.69z"/>
					</g>
					<g>
						<path class="st1" d="M626.53,339.41c0.05,0.18,0,0.32-0.05,0.46c-0.07,0.13-0.14,0.26-0.3,0.35c-0.32,0.17-0.7,0.04-0.85-0.28
							c-0.02-0.04-0.03-0.08-0.04-0.12c-0.05-0.18,0-0.31,0.05-0.45c0.07-0.13,0.14-0.26,0.3-0.34c0.31-0.17,0.69-0.06,0.85,0.26
							C626.5,339.33,626.52,339.37,626.53,339.41z"/>
					</g>
				</g>
				<g>
					<g>
						<path class="st1" d="M617.92,311.95c1.76-1.05,3.6-2.01,5.64-2.56c1.99-0.56,4.34-0.7,6.32,0.47c0.99,0.6,1.71,1.57,2.1,2.59
							c0.4,1.02,0.56,2.08,0.65,3.13c0.1,2.1-0.15,4.15-0.55,6.16c-0.06,0.28-0.32,0.46-0.58,0.4c-0.25-0.06-0.42-0.31-0.38-0.57
							c0.3-1.98,0.46-3.97,0.33-5.91c-0.15-1.89-0.71-3.88-2.22-4.74c-1.51-0.92-3.52-0.89-5.37-0.39
							c-1.88,0.47-3.69,1.32-5.45,2.26c-0.24,0.13-0.54,0.05-0.67-0.18C617.6,312.39,617.69,312.1,617.92,311.95z"/>
					</g>
					<g>
						<path class="st1" d="M617.15,313.42c-0.11,0.2-0.28,0.32-0.44,0.44c-0.18,0.09-0.35,0.2-0.58,0.22
							c-0.32,0.02-0.59-0.21-0.6-0.53c0-0.1,0.02-0.2,0.06-0.29c0.11-0.21,0.27-0.33,0.44-0.45c0.18-0.1,0.36-0.2,0.6-0.21
							c0.32-0.02,0.58,0.23,0.59,0.54C617.22,313.24,617.19,313.33,617.15,313.42z"/>
					</g>
					<g>
						<path class="st1" d="M615.23,314.68c-0.1,0.21-0.26,0.33-0.42,0.46c-0.18,0.1-0.34,0.22-0.57,0.24
							c-0.32,0.04-0.6-0.19-0.63-0.5c-0.01-0.1,0.01-0.2,0.05-0.29c0.1-0.21,0.26-0.34,0.42-0.47c0.18-0.1,0.35-0.22,0.58-0.24
							c0.32-0.03,0.59,0.2,0.61,0.51C615.29,314.5,615.27,314.6,615.23,314.68z"/>
					</g>
					<g>
						<path class="st1" d="M613.37,316.03c-0.58,0.58-1.23,1.09-1.85,1.62c-0.65,0.5-1.28,1.03-1.97,1.47
							c-0.24,0.15-0.55,0.09-0.69-0.14c-0.12-0.19-0.09-0.43,0.05-0.6c0.56-0.63,1.19-1.17,1.82-1.71c0.65-0.51,1.32-1.02,2.05-1.43
							c0.25-0.14,0.55-0.06,0.68,0.18C613.57,315.64,613.52,315.88,613.37,316.03z"/>
					</g>
					<g>
						<path class="st1" d="M607.98,320.51c-0.01,0.17-0.1,0.25-0.18,0.35c-0.1,0.07-0.2,0.15-0.36,0.15c-0.38,0-0.68-0.31-0.66-0.7
							l0-0.02c0.01-0.17,0.1-0.26,0.18-0.35c0.1-0.07,0.2-0.15,0.37-0.15c0.38,0,0.68,0.32,0.66,0.7L607.98,320.51z"/>
					</g>
					<g>
						<path class="st1" d="M606.2,322.22c-0.01,0.17-0.09,0.26-0.17,0.35c-0.1,0.07-0.19,0.15-0.36,0.16
							c-0.38,0.01-0.7-0.28-0.69-0.67l0-0.02c0.01-0.17,0.09-0.26,0.17-0.36c0.1-0.08,0.19-0.16,0.36-0.16
							c0.38-0.01,0.69,0.3,0.68,0.68L606.2,322.22z"/>
					</g>
				</g>
			</g>
		</g>
		<g>
			<path class="st5" d="M368.07,246.79c-75.16-1.18-276.15,61.03-300.67,0c-20.21-50.3,55.35-46.44,59.74-88.09
				c4.39-41.65-15.28-59.38,16.08-78.66c31.36-19.28,82.47,7.49,116.22-19.28c33.75-26.77,51.37-46.27,127.34-55.53
				c75.97-9.25,132.2,76.35,164.71,84.83c32.51,8.48,79.07-13.11,101.91,13.11c22.84,26.22-50.96,84.25-35.14,108.45
				c15.81,24.2,54.54,37.31,39.57,71.24C642.86,316.8,441.22,247.94,368.07,246.79z"/>
			<g>
				<g>
					<g>
						<path class="st1" d="M68.12,223.5c-0.01-0.34,0.08-0.65,0.19-0.95c0.13-0.29,0.26-0.59,0.48-0.84c0.26-0.3,0.63-0.29,0.8-0.03
							c0.07,0.11,0.11,0.25,0.1,0.4c-0.01,0.33-0.11,0.62-0.21,0.91c-0.14,0.28-0.23,0.57-0.44,0.82c-0.24,0.3-0.6,0.34-0.8,0.09
							C68.17,223.79,68.12,223.65,68.12,223.5z"/>
					</g>
					<g>
						<path class="st1" d="M69.5,220.13c0.03-0.34,0.19-0.62,0.32-0.92c0.17-0.27,0.31-0.56,0.58-0.78c0.31-0.25,0.66-0.21,0.8,0.08
							c0.06,0.12,0.07,0.26,0.04,0.41c-0.06,0.32-0.19,0.6-0.32,0.88c-0.16,0.27-0.32,0.53-0.55,0.76c-0.27,0.27-0.63,0.27-0.8-0.01
							C69.51,220.43,69.49,220.28,69.5,220.13z"/>
					</g>
					<g>
						<path class="st1" d="M71.3,216.97c0.08-0.33,0.25-0.6,0.41-0.88c0.19-0.26,0.39-0.51,0.67-0.7c0.33-0.22,0.67-0.14,0.78,0.16
							c0.05,0.13,0.04,0.27,0,0.41c-0.09,0.32-0.27,0.57-0.43,0.83c-0.18,0.25-0.36,0.5-0.63,0.7c-0.31,0.23-0.67,0.18-0.8-0.11
							C71.27,217.26,71.26,217.11,71.3,216.97z"/>
					</g>
					<g>
						<path class="st1" d="M75.28,211.91c0.13-0.31,0.36-0.54,0.57-0.78c0.23-0.22,0.47-0.44,0.78-0.57
							c0.36-0.16,0.69-0.02,0.75,0.3c0.02,0.13,0,0.27-0.07,0.41c-0.15,0.29-0.36,0.52-0.56,0.75c-0.23,0.21-0.45,0.42-0.75,0.57
							c-0.34,0.17-0.68,0.07-0.76-0.25C75.2,212.2,75.22,212.05,75.28,211.91z"/>
					</g>
					<g>
						<path class="st1" d="M78.6,208.77c0.07-0.21,0.22-0.34,0.36-0.47c0.16-0.11,0.31-0.23,0.53-0.26
							c0.43-0.06,0.71,0.23,0.64,0.62c-0.01,0.05-0.02,0.1-0.04,0.14c-0.07,0.21-0.21,0.33-0.35,0.46c-0.16,0.1-0.3,0.22-0.52,0.25
							c-0.42,0.07-0.72-0.2-0.66-0.6C78.57,208.87,78.59,208.82,78.6,208.77z"/>
					</g>
					<g>
						<path class="st1" d="M81.7,206.44c0.09-0.2,0.25-0.32,0.41-0.44c0.17-0.09,0.34-0.19,0.56-0.2c0.44-0.01,0.68,0.32,0.57,0.69
							c-0.01,0.05-0.03,0.09-0.05,0.14c-0.1,0.2-0.25,0.3-0.39,0.42c-0.16,0.09-0.32,0.19-0.54,0.2c-0.42,0.02-0.7-0.27-0.6-0.66
							C81.66,206.54,81.68,206.49,81.7,206.44z"/>
					</g>
				</g>
				<g>
					<g>
						<path class="st1" d="M76.3,255.31c-0.92-0.97-1.68-2.07-2.52-3.11c-0.72-1.12-1.46-2.24-2.14-3.39
							c-0.59-1.19-1.23-2.37-1.78-3.58l-1.47-3.72c-0.85-2.54-1.42-5.19-1.58-7.87c-0.17-2.68,0.1-5.4,0.81-7.98
							c0.1-0.36,0.39-0.58,0.65-0.5c0.25,0.08,0.38,0.4,0.3,0.73c-0.58,2.51-0.77,5.11-0.57,7.67c0.18,2.57,0.74,5.1,1.58,7.54
							l1.4,3.64c0.53,1.18,1.14,2.33,1.71,3.5c0.64,1.13,1.34,2.22,2.01,3.33c0.79,1.02,1.49,2.12,2.35,3.1
							c0.24,0.27,0.26,0.63,0.06,0.8C76.89,255.64,76.54,255.56,76.3,255.31z"/>
					</g>
					<g>
						<path class="st1" d="M78.17,256.08c0.26,0.11,0.43,0.31,0.63,0.47c0.18,0.19,0.37,0.37,0.48,0.63
							c0.16,0.36,0.02,0.7-0.33,0.75c-0.11,0.02-0.23,0-0.34-0.04c-0.28-0.1-0.48-0.27-0.69-0.45c-0.19-0.2-0.35-0.41-0.46-0.68
							c-0.14-0.38,0.03-0.71,0.37-0.74C77.95,256.01,78.07,256.03,78.17,256.08z"/>
					</g>
					<g>
						<path class="st1" d="M80.33,258.13c0.27,0.08,0.45,0.27,0.68,0.41c0.2,0.17,0.4,0.33,0.54,0.58c0.19,0.34,0.08,0.69-0.26,0.78
							c-0.11,0.03-0.23,0.02-0.34-0.01c-0.28-0.07-0.5-0.23-0.73-0.38c-0.21-0.17-0.39-0.37-0.52-0.64
							c-0.17-0.37-0.03-0.71,0.3-0.77C80.11,258.08,80.22,258.09,80.33,258.13z"/>
					</g>
					<g>
						<path class="st1" d="M82.67,259.97c0.93,0.54,1.83,1.06,2.74,1.59c0.92,0.51,1.83,1.02,2.77,1.55
							c0.31,0.18,0.44,0.52,0.29,0.75c-0.12,0.19-0.41,0.24-0.69,0.15c-1.05-0.32-2.02-0.84-2.99-1.35
							c-0.94-0.56-1.86-1.17-2.69-1.88c-0.27-0.26-0.33-0.61-0.12-0.8C82.14,259.82,82.43,259.83,82.67,259.97z"/>
					</g>
					<g>
						<path class="st1" d="M90.67,264.1c0.19-0.06,0.34-0.02,0.49,0.01c0.14,0.06,0.29,0.12,0.41,0.27
							c0.27,0.36,0.16,0.78-0.26,0.93l-0.02,0.01c-0.19,0.06-0.35,0.02-0.51-0.01c-0.15-0.06-0.31-0.12-0.42-0.28
							c-0.27-0.36-0.13-0.77,0.29-0.92L90.67,264.1z"/>
					</g>
					<g>
						<path class="st1" d="M93.74,264.91c0.18-0.08,0.33-0.05,0.48-0.04c0.15,0.04,0.3,0.07,0.43,0.21c0.3,0.3,0.3,0.74-0.12,0.96
							l-0.02,0.01c-0.18,0.09-0.35,0.07-0.51,0.06c-0.16-0.04-0.32-0.09-0.46-0.23c-0.32-0.33-0.22-0.75,0.17-0.94L93.74,264.91z"/>
					</g>
				</g>
			</g>
			<path class="st6" d="M370.69,44.2c-35.21,5.72-62.59,21.75-82.15,48.07c-18.25,24.04-14.34,54.94,1.3,78.98
				c14.34,22.89,41.73,30.9,67.8,36.63c73.02,17.17,139.52,38.92,208.63,60.66c29.99,9.16,65.2,22.89,91.27,2.29
				c0.01-0.01,0.03-0.02,0.04-0.03c2.55-2.02,3.65-5.11,3.04-8.08c-4.15-20.26-30.13-32.35-42.37-51.09
				c-15.81-24.2,57.99-82.23,35.14-108.45C630.56,76.95,584,98.55,551.49,90.06c-3.85-1.01-8.04-3.11-12.56-5.99
				C480.77,71.16,434.83,34.26,370.69,44.2z"/>
			<path class="st7" d="M629.58,286.53c-30.72,0-83.47-11.79-134.49-23.19c-50.21-11.22-97.64-21.82-126.9-22.28
				c-0.74-0.01-1.51-0.02-2.28-0.02c-24.07,0-59.51,5.76-97.03,11.87c-43.27,7.04-92.31,15.01-130.37,15.01
				c-37.48,0-58.73-7.54-64.96-23.05c-9.62-23.96,4.57-32.51,24.23-44.34c15.77-9.5,33.64-20.26,35.86-41.31
				c1.57-14.88,0.17-26.94-0.96-36.63c-2.1-18.08-3.15-27.15,14.29-37.88c7.51-4.62,16.86-6.59,31.25-6.59
				c5.49,0,11.08,0.27,17,0.56c5.99,0.29,12.19,0.59,18.35,0.59c15.02,0,34.3-1.62,50.26-14.27c3.1-2.46,6.07-4.86,8.96-7.2
				c27.81-22.49,47.9-38.74,114.9-46.9c3.51-0.43,7.08-0.64,10.61-0.64c42.56,0,78.73,30.82,107.79,55.58
				c17.35,14.78,31.05,26.45,43.56,29.72c6.06,1.58,12.99,2.35,21.18,2.35c7.63,0,15.51-0.65,23.13-1.29
				c7.59-0.63,14.75-1.22,21.64-1.22c16,0,25.77,3.37,32.64,11.26c9.45,10.85-5.02,32.86-17.79,52.29
				c-13.96,21.23-27.14,41.28-17.83,55.53c5.38,8.24,12.97,15.07,20.32,21.68c15.41,13.87,27.58,24.82,18.83,44.65
				C650.12,284.5,642.24,286.53,629.58,286.53z"/>
		</g>
		<g>
			<path class="st8" d="M582.4,348.61H187.93c-2.13,0-3.85-1.73-3.85-3.85V130.39c0-2.13,1.73-3.85,3.85-3.85H582.4
				c2.13,0,3.85,1.73,3.85,3.85v214.37C586.25,346.89,584.53,348.61,582.4,348.61z"/>
			<path class="st9" d="M575.37,340.23H180.9c-2.13,0-3.85-1.73-3.85-3.85V122.01c0-2.13,1.73-3.85,3.85-3.85h394.47
				c2.13,0,3.85,1.73,3.85,3.85v214.37C579.22,338.5,577.5,340.23,575.37,340.23z"/>
			<g>
				<path class="st10" d="M570.06,331.85H172.14c-1.17,0-2.12-0.95-2.12-2.12V111.89c0-1.17,0.95-2.12,2.12-2.12h397.93
					c1.17,0,2.12,0.95,2.12,2.12v217.83C572.19,330.9,571.24,331.85,570.06,331.85z"/>
				<path class="st11" d="M192.43,128.8h25.72v-1.51h-25.72V128.8z M186.38,129.56h3.03v-3.03h-3.03V129.56z M192.43,137.12h25.72
					v-1.51h-25.72V137.12z M186.38,137.88h3.03v-3.03h-3.03V137.88z M192.43,145.45h25.72v-1.51h-25.72V145.45z M186.38,146.2h3.03
					v-3.03h-3.03V146.2z"/>
				<path class="st12" d="M285.49,270.32h-84c-8.35,0-15.11-6.77-15.11-15.11v-80.5c0-8.35,6.77-15.11,15.11-15.11h84
					c8.35,0,15.11,6.77,15.11,15.11v80.5C300.6,263.56,293.83,270.32,285.49,270.32z"/>
				<path class="st12" d="M413.79,270.32h-84c-8.35,0-15.11-6.77-15.11-15.11v-80.5c0-8.35,6.77-15.11,15.11-15.11h84
					c8.35,0,15.11,6.77,15.11,15.11v80.5C428.9,263.56,422.14,270.32,413.79,270.32z"/>
				<path class="st12" d="M542.09,270.32h-84c-8.35,0-15.11-6.77-15.11-15.11v-80.5c0-8.35,6.77-15.11,15.11-15.11h84
					c8.35,0,15.11,6.77,15.11,15.11v80.5C557.2,263.56,550.44,270.32,542.09,270.32z"/>
				<g>
					<g>
						<g>
							<path class="st8" d="M529.25,137.86l-1.92-12.79c-0.05-0.35-0.35-0.61-0.71-0.61l-3.44-0.02l0.01-1.59l3.44,0.02
								c1.14,0.01,2.1,0.83,2.27,1.96l0.21,1.42l21.69,0.14l-2.23,10.09L529.25,137.86z M529.35,127.84l1.25,8.33l16.68-1.19
								l1.55-7.01L529.35,127.84z"/>
						</g>
						<g>
							<path class="st8" d="M548.88,140.87l-18.75-0.11c-0.4,0-0.78-0.18-1.04-0.49c-0.26-0.31-0.37-0.71-0.31-1.11l0.37-2.28
								l1.57,0.25l-0.33,2.03l18.5,0.11L548.88,140.87z"/>
						</g>
						<path class="st13" d="M534.91,144c-0.01,1.18-0.97,2.13-2.15,2.13c-1.18-0.01-2.13-0.97-2.13-2.15
							c0.01-1.18,0.97-2.13,2.15-2.13C533.97,141.86,534.92,142.82,534.91,144z"/>
						<path class="st13" d="M546.14,144.08c-0.01,1.18-0.97,2.13-2.15,2.13c-1.18-0.01-2.13-0.97-2.13-2.15
							c0.01-1.18,0.97-2.13,2.15-2.13C545.2,141.93,546.15,142.89,546.14,144.08z"/>
					</g>
				</g>
				<line class="st14" x1="314.13" y1="277.98" x2="428.9" y2="277.98"/>
			</g>
			<g>
				<path class="st15" d="M416.17,229.84c0,1.57-18.74,2.84-41.86,2.84s-41.86-1.27-41.86-2.84c0-1.57,18.74-2.84,41.86-2.84
					S416.17,228.28,416.17,229.84z"/>
				<g>
					<g>
						<path class="st16" d="M340.99,200.26c0,0,0.84-2.12,8.17,0.66c3.98,1.51,9.16,5.15,19.24,0.76c0,0,3.07,10.19-9.78,9.3
							C345.77,210.09,340.99,200.26,340.99,200.26z"/>
						<path class="st17" d="M412.45,216.66l2.98,0.78c1.69,0.9,1.6,5.4,0.21,6.79c0,0-12.02,7.03-47.21,7.62
							c-20.24-0.39-33.77-3.85-34.4-5.23c-0.62-1.38-0.68-4.45-0.56-6.62l3.82-4.45L412.45,216.66z"/>
						<path class="st18" d="M340.99,200.26c0,0-3.97,3.81-4.44,6.94c-0.68,4.51-1.44,6.74-0.95,11.29c0,0,11.41,4.45,30.43,4.67
							c9.39,0.11,22.85-0.46,32.7-2.21c8.38-1.49,16.7-3.5,16.7-3.5c-2.42-8.48-9.75-5.33-20.18-8.63
							c-7.1-2.25-24.01-16.2-24.01-16.2s-3.92,2.91-4.13,4.4c-0.13,0.94,1.73,3.4,1.73,3.4s-0.47,8.01-8.47,8.54
							C352.59,209.47,340.99,200.26,340.99,200.26z"/>
						<path class="st19" d="M415.43,217.45c0,0-6.31,4.27-15.53,6.06c-9.42,1.83-24.8,2.43-34.39,2.07
							c-10.6-0.4-32.05-5.58-32.05-5.58"/>
						<path class="st20" d="M368.84,200.41c0,0,4.05,0.01,5.49,0.51c3.38,1.18,13.15,8.98,20.48,9.91"/>
						<path class="st17" d="M380.94,200.11l-3.27,5.27c-0.45,0.62-2.4-0.78-1.96-1.41l3.02-5.57
							C379.4,197.57,381.59,199.27,380.94,200.11z"/>
						<path class="st17" d="M385.69,202.92l-3.43,5.59c-0.42,0.94-2.61-0.04-2.2-0.98l3.43-6.32
							C384.15,200.38,386.35,202.07,385.69,202.92z"/>
						<path class="st17" d="M390.44,205.72l-3.47,5.62c-0.37,0.79-2.52-0.21-2.15-1l3.43-6.32
							C388.9,203.18,391.1,204.88,390.44,205.72z"/>
						<path class="st17" d="M371.02,203.03c0.06-1.54,2.55-1.44,2.49,0.1l-0.99,9.37c0,1.35-1.42,1.35-1.42,0L371.02,203.03z"/>
						<path class="st20" d="M362.35,223.24c0,0,1.14-4.18,5.15-6.07c4.49-2.12,15.17,1.89,21.08-1.39c1.74-0.96,6.22-4.94,6.22-4.94
							"/>
						<path class="st20" d="M337.59,204.73c0,0,6.33,2.84,9.28,6.58c1.33,1.69,3.18,10.75,3.18,10.75"/>
					</g>
				</g>
			</g>
			<g>
				<path class="st15" d="M284.64,229.84c0,1.57-18.74,2.84-41.86,2.84c-23.12,0-41.86-1.27-41.86-2.84
					c0-1.57,18.74-2.84,41.86-2.84C265.89,227.01,284.64,228.28,284.64,229.84z"/>
				<g>
					<g>
						<path class="st16" d="M209.45,200.26c0,0,0.84-2.12,8.17,0.66c3.98,1.51,9.16,5.15,19.24,0.76c0,0,3.07,10.19-9.78,9.3
							C214.23,210.09,209.45,200.26,209.45,200.26z"/>
						<path class="st17" d="M280.92,216.66l2.98,0.78c1.69,0.9,1.6,5.4,0.21,6.79c0,0-12.02,7.03-47.21,7.62
							c-20.24-0.39-33.77-3.85-34.4-5.23c-0.63-1.38-0.68-4.45-0.56-6.62l3.82-4.45L280.92,216.66z"/>
						<path class="st5" d="M209.45,200.26c0,0-3.97,3.81-4.44,6.94c-0.68,4.51-1.44,6.74-0.95,11.29c0,0,11.41,4.45,30.43,4.67
							c9.39,0.11,22.85-0.46,32.7-2.21c8.38-1.49,16.7-3.5,16.7-3.5c-2.42-8.48-9.75-5.33-20.18-8.63
							c-7.1-2.25-24.01-16.2-24.01-16.2s-3.92,2.91-4.13,4.4c-0.13,0.94,1.73,3.4,1.73,3.4s-0.47,8.01-8.47,8.54
							C221.05,209.47,209.45,200.26,209.45,200.26z"/>
						<path class="st19" d="M283.89,217.45c0,0-6.31,4.27-15.53,6.06c-9.42,1.83-24.8,2.43-34.39,2.07
							c-10.6-0.4-32.05-5.58-32.05-5.58"/>
						<path class="st21" d="M237.3,200.41c0,0,4.05,0.01,5.49,0.51c3.38,1.18,13.15,8.98,20.48,9.91"/>
						<path class="st17" d="M249.4,200.11l-3.27,5.27c-0.45,0.62-2.4-0.78-1.96-1.41l3.03-5.57
							C247.86,197.57,250.05,199.27,249.4,200.11z"/>
						<path class="st17" d="M254.15,202.92l-3.43,5.59c-0.42,0.94-2.61-0.04-2.2-0.98l3.43-6.32
							C252.61,200.38,254.81,202.07,254.15,202.92z"/>
						<path class="st17" d="M258.91,205.72l-3.47,5.62c-0.37,0.79-2.52-0.21-2.15-1l3.43-6.32
							C257.36,203.18,259.56,204.88,258.91,205.72z"/>
						<path class="st17" d="M239.48,203.03c0.06-1.54,2.55-1.44,2.49,0.1l-0.99,9.37c0,1.35-1.42,1.35-1.42,0L239.48,203.03z"/>
						<path class="st21" d="M230.82,223.24c0,0,1.14-4.18,5.15-6.07c4.49-2.12,15.17,1.89,21.08-1.39c1.74-0.96,6.22-4.94,6.22-4.94
							"/>
						<path class="st21" d="M206.05,204.73c0,0,6.33,2.84,9.28,6.58c1.33,1.69,3.18,10.75,3.18,10.75"/>
					</g>
				</g>
			</g>
			<g>
				<path class="st15" d="M541.7,229.84c0,1.57-18.74,2.84-41.86,2.84c-23.12,0-41.86-1.27-41.86-2.84c0-1.57,18.74-2.84,41.86-2.84
					C522.95,227.01,541.7,228.28,541.7,229.84z"/>
				<g>
					<g>
						<path class="st22" d="M466.51,200.26c0,0,0.84-2.12,8.17,0.66c3.98,1.51,9.16,5.15,19.24,0.76c0,0,3.07,10.19-9.78,9.3
							C471.29,210.09,466.51,200.26,466.51,200.26z"/>
						<path class="st17" d="M537.98,216.66l2.98,0.78c1.69,0.9,1.6,5.4,0.21,6.79c0,0-12.02,7.03-47.21,7.62
							c-20.24-0.39-33.77-3.85-34.4-5.23c-0.62-1.38-0.68-4.45-0.56-6.62l3.82-4.45L537.98,216.66z"/>
						<path class="st2" d="M466.51,200.26c0,0-3.97,3.81-4.44,6.94c-0.68,4.51-1.44,6.74-0.95,11.29c0,0,11.41,4.45,30.43,4.67
							c9.39,0.11,22.85-0.46,32.7-2.21c8.38-1.49,16.7-3.5,16.7-3.5c-2.42-8.48-9.75-5.33-20.18-8.63
							c-7.1-2.25-24.01-16.2-24.01-16.2s-3.92,2.91-4.13,4.4c-0.13,0.94,1.73,3.4,1.73,3.4s-0.47,8.01-8.47,8.54
							C478.11,209.47,466.51,200.26,466.51,200.26z"/>
						<path class="st19" d="M540.95,217.45c0,0-6.31,4.27-15.53,6.06c-9.42,1.83-24.8,2.43-34.39,2.07
							c-10.6-0.4-32.05-5.58-32.05-5.58"/>
						<path class="st21" d="M494.36,200.41c0,0,4.05,0.01,5.49,0.51c3.38,1.18,13.16,8.98,20.48,9.91"/>
						<path class="st17" d="M506.46,200.11l-3.27,5.27c-0.45,0.62-2.4-0.78-1.96-1.41l3.02-5.57
							C504.92,197.57,507.12,199.27,506.46,200.11z"/>
						<path class="st17" d="M511.22,202.92l-3.43,5.59c-0.42,0.94-2.61-0.04-2.2-0.98l3.43-6.32
							C509.67,200.38,511.87,202.07,511.22,202.92z"/>
						<path class="st17" d="M515.97,205.72l-3.47,5.62c-0.37,0.79-2.52-0.21-2.15-1l3.43-6.32
							C514.42,203.18,516.62,204.88,515.97,205.72z"/>
						<path class="st17" d="M496.54,203.03c0.06-1.54,2.55-1.44,2.49,0.1l-0.99,9.37c0,1.35-1.42,1.35-1.42,0L496.54,203.03z"/>
						<path class="st21" d="M487.88,223.24c0,0,1.14-4.18,5.15-6.07c4.49-2.12,15.17,1.89,21.08-1.39c1.74-0.96,6.22-4.94,6.22-4.94
							"/>
						<path class="st21" d="M463.11,204.73c0,0,6.33,2.84,9.28,6.58c1.33,1.69,3.18,10.75,3.18,10.75"/>
					</g>
				</g>
			</g>
			<g>
				<path class="st8" d="M327.04,179.97v0.13c0,0.65-0.16,0.93-0.53,0.93h-3.63c-0.37,0-0.53-0.28-0.53-0.93v-0.13
					c0-0.65,0.16-0.93,0.53-0.93h3.63C326.88,179.04,327.04,179.32,327.04,179.97z"/>
				<path class="st8" d="M335.47,174.94c0,2.58-1.42,3.12-2.67,3.12s-2.67-0.54-2.67-3.12c0-2.58,1.42-3.12,2.67-3.12
					S335.47,172.36,335.47,174.94z M331.94,174.94c0,0.72,0.16,1.6,0.85,1.6c0.69,0,0.84-0.87,0.84-1.6c0-0.72-0.14-1.52-0.84-1.52
					C332.1,173.41,331.94,174.21,331.94,174.94z M340.44,172.19c0,0.06-0.04,0.15-0.09,0.26l-6.36,12.03
					c-0.18,0.33-0.41,0.52-0.78,0.52h-0.78c-0.25,0-0.37-0.11-0.37-0.24c0-0.07,0.04-0.17,0.09-0.28l6.36-12.03
					c0.18-0.33,0.41-0.52,0.78-0.52h0.78C340.31,171.93,340.44,172.04,340.44,172.19z M342.36,181.99c0,2.58-1.42,3.12-2.67,3.12
					s-2.67-0.54-2.67-3.12c0-2.58,1.42-3.12,2.67-3.12S342.36,179.41,342.36,181.99z M338.83,181.99c0,0.72,0.16,1.6,0.85,1.6
					c0.69,0,0.84-0.87,0.84-1.6c0-0.72-0.14-1.52-0.84-1.52C338.99,180.47,338.83,181.27,338.83,181.99z"/>
			</g>
			<g>
				<g>
					<path class="st18" d="M403.2,240.67v1.22c1.75,0.03,4.84,0.73,4.84,1.75c0,0.46-0.67,1.62-0.98,1.62
						c-0.46,0-1.56-1.1-3.86-1.16v7.13c2.73,0.98,5.85,2.08,5.85,6.31c0,3.49-2.27,5.7-5.85,6v1.53c0,0.34-0.18,0.49-0.61,0.49
						c-0.43,0-0.61-0.15-0.61-0.49v-1.5c-3.46-0.09-6.06-1.41-6.06-2.24c0-0.49,0.74-1.65,1.07-1.65c0.37,0,2.02,1.59,4.99,1.68
						v-7.9c-2.69-1.04-5.66-2.11-5.66-6.06c0-3,2.2-5.08,5.66-5.45v-1.29c0-0.34,0.18-0.49,0.61-0.49
						C403.02,240.18,403.2,240.33,403.2,240.67z M399.1,247.53c0,1.75,1.26,2.57,2.88,3.25v-6.58
						C400.23,244.5,399.1,245.6,399.1,247.53z M403.2,261.28c1.81-0.34,3.06-1.75,3.06-3.74c0-1.93-1.38-2.85-3.06-3.58V261.28z"/>
				</g>
				<path class="st18" d="M390.42,264.56h-50.97c-2.17,0-3.93-1.76-3.93-3.93v-2.74c0-2.17,1.76-3.93,3.93-3.93h50.97
					c2.17,0,3.93,1.76,3.93,3.93v2.74C394.35,262.8,392.59,264.56,390.42,264.56z"/>
			</g>
		</g>
		<g>
			<path class="st23" d="M747.07,494.77H4.21c-2.77,0-3.99-3.49-1.83-5.21l111.25-88.87c2.39-1.91,5.43-2.95,8.57-2.95h506.86
				c3.14,0,6.19,1.05,8.57,2.95l111.25,88.87C751.06,491.28,749.84,494.77,747.07,494.77z"/>
			<g>
				<path class="st24" d="M744.22,458.43H7.05l114.31-91.31c2.32-1.85,5.27-2.87,8.32-2.87H621.6c3.05,0,6,1.02,8.32,2.87
					L744.22,458.43z"/>
				<polygon class="st9" points="671.15,450.26 80.13,450.26 163.34,372.42 587.94,372.42 				"/>
				<polygon class="st1" points="663.9,450.26 87.38,450.26 168.54,375.76 582.73,375.76 				"/>
				<path class="st9" d="M729.91,482.93H21.37c-7.91,0-14.32-6.41-14.32-14.32v-10.18h737.17v10.18
					C744.22,476.52,737.81,482.93,729.91,482.93z"/>
				<line class="st25" x1="7.05" y1="467.96" x2="744.22" y2="467.96"/>
				<path class="st8" d="M255.99,475.12H152.72c-2.64,0-4.78-2.14-4.78-4.78v-3.32c0-2.64,2.14-4.78,4.78-4.78h103.27
					c2.64,0,4.78,2.14,4.78,4.78v3.32C260.77,472.98,258.63,475.12,255.99,475.12z"/>
				<path class="st24" d="M256.53,475.12H152.18c-2.34,0-4.24-1.9-4.24-4.24v-2.95c0-2.34,1.9-4.24,4.24-4.24h104.34
					c2.34,0,4.24,1.9,4.24,4.24v2.95C260.77,473.22,258.87,475.12,256.53,475.12z"/>
				<g>
					<polygon class="st9" points="616.61,386.72 658.51,423.76 680.94,423.76 680.94,420.81 616.61,383.77 					"/>
					<polygon class="st26" points="616.61,383.77 658.51,420.81 680.94,420.81 634.37,383.77 					"/>
				</g>
				<ellipse class="st1" cx="105" cy="401.46" rx="17.63" ry="7.67"/>
				<path class="st8" d="M117.34,400.89c0,2.65-5.53,4.8-12.34,4.8c-6.82,0-12.34-2.15-12.34-4.8c0-2.65,5.53-4.8,12.34-4.8
					C111.82,396.08,117.34,398.23,117.34,400.89z"/>
				<path class="st1" d="M106.46,399.8c0,0.91-1.9,1.66-4.25,1.66s-4.25-0.74-4.25-1.66c0-0.91,1.9-1.66,4.25-1.66
					S106.46,398.88,106.46,399.8z"/>
			</g>
		</g>
		<g>
			<g>
				<g>
					<g>
						<path class="st24" d="M601.67,90.36H188.78c-7.39,0-13.38-5.99-13.38-13.38v-9.31c0-7.39,5.99-13.38,13.38-13.38h412.89
							c7.39,0,13.38,5.99,13.38,13.38v9.31C615.05,84.37,609.06,90.36,601.67,90.36z"/>
						<circle class="st24" cx="109.34" cy="72.32" r="18.04"/>
						<circle class="st24" cx="151.39" cy="72.32" r="18.04"/>
					</g>
				</g>
				<polygon class="st24" points="640.06,53.37 646.02,66.12 659.98,67.85 649.7,77.45 652.37,91.26 640.06,84.46 627.74,91.26 
					630.41,77.45 620.14,67.85 634.1,66.12 				"/>
				<g>
					<g>
						<path class="st10" d="M601.67,84.12H188.78c-7.39,0-13.38-5.99-13.38-13.38v-9.31c0-7.39,5.99-13.38,13.38-13.38h412.89
							c7.39,0,13.38,5.99,13.38,13.38v9.31C615.05,78.13,609.06,84.12,601.67,84.12z"/>
						<g>
							<path class="st27" d="M281.51,59.44v0.67c1.6,0.06,3.13,0.65,3.13,1.26c0,0.45-0.53,1.48-0.91,1.48
								c-0.28,0-0.91-0.55-2.23-0.59v3.59c1.69,0.69,3.74,1.48,3.74,4.1c0,2.68-1.69,3.96-3.74,4.18v0.91
								c0,0.35-0.16,0.49-0.47,0.49c-0.37,0-0.53-0.14-0.53-0.49v-0.89c-2.54-0.08-4.1-1-4.1-1.62c0-0.51,0.69-1.52,1.02-1.52
								c0.32,0,1.4,0.97,3.07,0.99v-3.92c-1.73-0.65-3.82-1.4-3.82-4.12c0-2.34,1.71-3.59,3.82-3.82v-0.69
								c0-0.35,0.16-0.49,0.49-0.49C281.35,58.94,281.51,59.08,281.51,59.44z M279.19,63.81c0,0.77,0.55,1.22,1.32,1.6v-3.05
								C279.56,62.57,279.19,63.14,279.19,63.81z M281.51,71.83c0.73-0.22,1.26-0.79,1.26-1.66c0-0.81-0.53-1.3-1.26-1.65V71.83z"/>
							<path class="st27" d="M291.31,68.7v0.16c0,0.59-0.16,0.83-0.51,0.83h-3.92c-0.35,0-0.51-0.24-0.51-0.83V68.7
								c0-0.59,0.16-0.85,0.51-0.85h3.92C291.15,67.85,291.31,68.1,291.31,68.7z"/>
							<path class="st27" d="M298.71,63.34c0,2.7-1.56,3.27-2.88,3.27c-1.32,0-2.86-0.57-2.86-3.27c0-2.7,1.52-3.27,2.86-3.27
								C297.16,60.07,298.71,60.64,298.71,63.34z M294.73,63.34c0,0.83,0.16,1.85,1.1,1.85c0.95,0,1.12-1.02,1.12-1.85
								c0-0.83-0.14-1.81-1.12-1.81C294.89,61.52,294.73,62.51,294.73,63.34z M304.17,60.38c0,0.06-0.04,0.14-0.1,0.24l-7.15,12.97
								c-0.16,0.31-0.43,0.49-0.83,0.49h-0.59c-0.28,0-0.43-0.1-0.43-0.24c0-0.06,0.04-0.16,0.1-0.26l7.13-12.97
								c0.18-0.32,0.45-0.47,0.85-0.47h0.59C304.02,60.14,304.17,60.24,304.17,60.38z M306.24,70.86c0,2.72-1.56,3.27-2.88,3.27
								c-1.32,0-2.86-0.55-2.86-3.27c0-2.7,1.52-3.27,2.86-3.27C304.69,67.59,306.24,68.16,306.24,70.86z M302.26,70.86
								c0,0.83,0.16,1.85,1.1,1.85c0.95,0,1.12-1.02,1.12-1.85c0-0.81-0.14-1.81-1.12-1.81C302.42,69.05,302.26,70.06,302.26,70.86z
								"/>
						</g>
						<path class="st27" d="M263.77,75.51h-35.38c-4.58,0-8.29-3.71-8.29-8.29l0,0c0-4.58,3.71-8.29,8.29-8.29h35.38
							c4.58,0,8.29,3.71,8.29,8.29l0,0C272.05,71.8,268.34,75.51,263.77,75.51z"/>
						<circle class="st10" cx="109.34" cy="66.08" r="18.04"/>
						<circle class="st10" cx="151.39" cy="66.08" r="18.04"/>
					</g>
				</g>
				<polygon class="st28" points="640.06,47.13 646.02,59.88 659.98,61.61 649.7,71.21 652.37,85.02 640.06,78.22 627.74,85.02 
					630.41,71.21 620.14,61.61 634.1,59.88 				"/>
			</g>
			<polygon class="st8" points="111.57,55.09 100.16,66.39 111.57,77.92 113.74,75.74 104.5,66.39 113.74,57.26 			"/>
			<polygon class="st8" points="149.75,77.92 161.17,66.61 149.75,55.09 147.58,57.26 156.82,66.61 147.58,75.74 			"/>
			<path class="st8" d="M212.46,76.44l-7.27-7.19c1.02-1.52,1.57-3.34,1.56-5.16c-0.02-5.16-4.29-9.38-9.51-9.41
				c-2.46-0.01-4.93,0.98-6.7,2.73c-1.77,1.74-2.77,4.16-2.75,6.62c0.02,5.16,4.29,9.38,9.51,9.41c0.01,0,0.03,0,0.04,0
				c1.84,0,3.67-0.55,5.21-1.57l7.27,7.19L212.46,76.44z M203.92,64.09c0.01,1.72-0.69,3.41-1.93,4.63
				c-1.23,1.22-2.93,1.91-4.67,1.91c-0.01,0-0.02,0-0.03,0c-3.67-0.02-6.66-2.98-6.68-6.6c-0.01-1.72,0.69-3.41,1.93-4.63
				c1.24-1.22,2.94-1.92,4.69-1.91C200.9,57.51,203.9,60.47,203.92,64.09z"/>
			<path class="st29" d="M590.62,66.5l-4.09,4.11c-0.48,0.49-0.48,1.28,0,1.76c0.48,0.49,1.27,0.49,1.75,0l4.09-4.11l4.09,4.11
				c0.48,0.49,1.27,0.49,1.75,0c0.48-0.49,0.48-1.28,0-1.76l-4.09-4.11l4.09-4.11c0.48-0.49,0.48-1.28,0-1.76
				c-0.48-0.49-1.27-0.49-1.75,0l-4.09,4.11l-4.09-4.11c-0.48-0.49-1.27-0.49-1.75,0c-0.48,0.49-0.48,1.28,0,1.76L590.62,66.5z
				 M592.37,79.79c-7.3,0-13.22-5.95-13.22-13.29c0-7.34,5.92-13.29,13.22-13.29c7.3,0,13.22,5.95,13.22,13.29
				C605.59,73.84,599.68,79.79,592.37,79.79z"/>
		</g>
		<g>
			<path class="st18" d="M135.87,150.01c0-13.48-10.93-24.4-24.4-24.4c-13.48,0-24.4,10.93-24.4,24.4c0,0,0,0,0,0
				c0,5.6-1.68,9.27,24.4,56.1C137.66,159.07,135.84,152.9,135.87,150.01z"/>
			<path class="st1" d="M111.46,161.37c-5.95,0-10.78-4.83-10.78-10.78c0-5.96,4.83-10.78,10.78-10.78
				c5.96,0,10.78,4.83,10.78,10.78C122.25,156.55,117.42,161.37,111.46,161.37z"/>
		</g>
		<path class="st30" d="M448.5,257.75"/>
		<g>
			<g>
				<g>
					<path class="st23" d="M307.34,400.4l-9.9,17.15c-2.01,3.48,0.73,7.68,5.02,7.68h97.36c3.87,0,6.61-3.49,5.39-6.87l-6.17-17.15
						c-0.77-2.14-2.94-3.58-5.39-3.58h-81.29C310.26,397.63,308.33,398.69,307.34,400.4z"/>
					<g>
						<g>
							<path class="st8" d="M327.27,395.64c0,4.78-3.87,8.65-8.65,8.65s-8.65-3.87-8.65-8.65c0-4.78,3.87-8.65,8.65-8.65
								S327.27,390.86,327.27,395.64z"/>
							<circle class="st31" cx="318.63" cy="395.64" r="5.2"/>
							<path class="st32" d="M315.21,394.69l2.97-7.82c0.16-0.42,0.56-0.7,1.01-0.7h10.31c0.94,0,1.43,1.12,0.79,1.81L321,398.01
								c-0.77,0.83-1.96,1.14-3.04,0.79l-0.93-0.3C315.45,397.98,314.62,396.24,315.21,394.69z"/>
							<circle class="st8" cx="318.63" cy="395.64" r="1.99"/>
						</g>
						<g>
							<path class="st8" d="M377.37,395.64c0,4.78,3.87,8.65,8.65,8.65c4.78,0,8.65-3.87,8.65-8.65c0-4.78-3.87-8.65-8.65-8.65
								C381.24,386.99,377.37,390.86,377.37,395.64z"/>
							<path class="st31" d="M380.82,395.64c0,2.87,2.33,5.2,5.2,5.2c2.87,0,5.2-2.33,5.2-5.2s-2.33-5.2-5.2-5.2
								C383.14,390.44,380.82,392.76,380.82,395.64z"/>
							<path class="st32" d="M389.44,394.69l-2.97-7.82c-0.16-0.42-0.56-0.7-1.01-0.7h-10.31c-0.94,0-1.43,1.12-0.79,1.81
								l9.29,10.02c0.77,0.83,1.96,1.14,3.04,0.79l0.93-0.3C389.2,397.98,390.02,396.24,389.44,394.69z"/>
							<circle class="st8" cx="386.02" cy="395.64" r="1.99"/>
						</g>
						<g>
							<path class="st18" d="M296.01,315.29c-0.5,0-0.97-0.29-1.18-0.77c-2.93-6.78-7.81-17.84-8.69-19.23
								c-1.31-0.95-11.18-4.47-20.12-7.37c-0.53-0.17-0.89-0.66-0.89-1.22c0-0.56,0.36-1.05,0.89-1.22l15.89-5.15
								c0.24-0.08,0.49-0.08,0.73-0.02c1.52,0.41,14.93,4.13,17.81,6.81c2.29,2.13,9.05,16.22,10.38,19.02
								c0.3,0.64,0.03,1.4-0.61,1.71c-0.64,0.3-1.4,0.03-1.71-0.61c-3-6.32-8.32-16.86-9.81-18.24c-1.78-1.66-10.83-4.58-16.38-6.11
								l-11.78,3.82c8.2,2.72,16.69,5.76,17.6,6.98c1.06,1.42,7.71,16.75,9.04,19.81c0.28,0.65-0.02,1.4-0.67,1.68
								C296.35,315.25,296.18,315.29,296.01,315.29z"/>
						</g>
						<polygon class="st33" points="292.53,308.8 307,299.82 418.51,305.28 421.07,312.27 						"/>
						<path class="st18" d="M291.48,309.03l16.88,55.66c0.51,1.67,2.07,2.79,3.81,2.74l93.35-2.89c1.74-0.05,3.22-1.26,3.63-2.95
							l11.93-49.32L291.48,309.03z"/>
						<path class="st34" d="M316.58,332.31c6.03,12.55,19.38,15.08,32.08,14.45c27.27-1.35,51.1-12,67.07-34.63
							c0,0-99.28-2.48-99.3-2.48c-1.47-0.02-2.19,9.51-2.26,10.74C313.93,324.51,314.81,328.62,316.58,332.31z"/>
						<path class="st18" d="M405.29,395.39c-1.14-4.56-3.49-9.12-5.19-11.43c-0.88-1.2-2.33-2.57-5.72-2.57h-77.3
							c-1.22,0-3.4-0.2-4.32-1.55c-0.87-1.27-0.37-3.27,0.2-4.73c2.28-5.84,4.31-9.54,4.33-9.57l-3.02,0.25
							c-0.09,0.16-1.35,2.37-3.7,8.39c-1.15,2.95-1.13,5.34,0.07,7.1c1.19,1.75,3.42,2.67,6.44,2.67h4.14v1.73
							c0,1.08,0.87,1.95,1.95,1.95h1.48c1.08,0,1.95-0.87,1.95-1.95v-1.73h51.11v1.73c0,1.08,0.87,1.95,1.95,1.95h1.48
							c1.08,0,1.95-0.87,1.95-1.95v-1.73h11.3c2.33,0,3.11,0.79,3.65,1.53c1.61,2.18,3.76,6.5,4.77,10.53
							c0.23,0.91,0.16,1.6-0.19,2.05c-0.7,0.92-2.47,1.03-2.99,1.04c-17.91,0.4-56.54,0.18-77.3,0.06
							c-6.17-0.04-10.84-0.06-13.07-0.06c-3.15,0-5.49-0.9-6.6-2.54c-1.06-1.58-1.03-3.89,0.09-6.69
							c2.47-6.16,9.73-24.49,9.73-24.49l-2.38-0.94c0,0-7.26,18.33-9.73,24.48c-1.84,4.58-0.92,7.46,0.17,9.07
							c1.6,2.36,4.69,3.66,8.72,3.66c1.46,0,3.99,0.01,7.29,0.03v1.68c0,1.08,0.87,1.95,1.95,1.95h1.48c1.08,0,1.95-0.87,1.95-1.95
							v-1.26c0.15-0.15,0.23-0.24,0.38-0.39c11.83,0.07,29.46,0.17,45.76,0.17c4.43,0,8.75-0.01,12.84-0.03v1.5
							c0,1.08,0.87,1.95,1.95,1.95h1.48c1.08,0,1.95-0.87,1.95-1.95v-1.53c5.12-0.04,9.7-0.09,13.4-0.17
							c1.3-0.03,3.67-0.33,4.97-2.05C405.5,398.51,405.71,397.09,405.29,395.39z"/>
						<g>
							<path class="st1" d="M417.34,311.23l-11.57,47.71c-0.32,1.31-1.48,2.26-2.84,2.3l-43.59,1.35
								c3.38-3.65,6.74-7.33,10.06-11.03c0.24-0.27,0.32-0.61,0.17-0.77c-0.16-0.16-0.51-0.07-0.78,0.21
								c-3.59,3.71-7.15,7.44-10.67,11.2l-0.01,0.01c-0.13,0.14-0.21,0.29-0.27,0.43l-38.48,1.19c3.59-3.87,7.15-7.77,10.69-11.7
								c0.26-0.29,0.35-0.64,0.19-0.79c-0.16-0.17-0.52-0.06-0.8,0.23c-3.75,3.88-7.48,7.8-11.17,11.74l-0.01,0.01
								c-0.17,0.18-0.28,0.38-0.34,0.57l-3.48,0.11c-1.34,0.05-2.58-0.84-2.98-2.14l-7.68-25.33c1.99-2.15,3.94-4.33,5.87-6.54
								c0.14-0.16,0.13-0.41-0.02-0.56c-0.16-0.16-0.42-0.16-0.58,0c-1.91,1.92-3.79,3.87-5.65,5.83l-8.25-27.21l-1.23,0.37
								l16.32,53.8c0.55,1.81,2.23,3.05,4.11,3.05c0.04,0,0.09,0,0.13,0l88.48-2.74c1.93-0.06,3.59-1.41,4.04-3.28l11.57-47.71
								L417.34,311.23z"/>
							<path class="st1" d="M310.67,328.91c0.35-0.22,0.62-0.5,0.9-0.78c0.26-0.3,0.52-0.59,0.71-0.95
								c0.07-0.14,0.07-0.32-0.02-0.47c-0.14-0.22-0.43-0.29-0.64-0.15c-0.35,0.21-0.62,0.5-0.9,0.78c-0.26,0.3-0.52,0.59-0.71,0.95
								c-0.07,0.14-0.07,0.32,0.02,0.47C310.16,328.98,310.45,329.05,310.67,328.91z"/>
							<path class="st1" d="M313.05,326.36c0.15-0.01,0.23-0.08,0.31-0.15c0.06-0.09,0.13-0.17,0.13-0.32c0,0,0-0.01,0-0.01
								c-0.02-0.35-0.32-0.62-0.66-0.61c-0.15,0.01-0.23,0.08-0.31,0.15c-0.06,0.09-0.13,0.17-0.13,0.32c0,0,0,0.01,0,0.02
								C312.4,326.1,312.7,326.37,313.05,326.36z"/>
							<path class="st1" d="M323.71,314.9c2.6-2.65,5.18-5.33,7.72-8.03l0,0c0.21-0.23,0.2-0.6-0.04-0.82
								c-0.24-0.22-0.6-0.21-0.82,0.03c-2.52,2.73-5.01,5.48-7.47,8.26c-0.14,0.16-0.13,0.41,0.02,0.56
								C323.3,315.06,323.56,315.06,323.71,314.9z"/>
							<path class="st1" d="M322.37,316.4c0.15-0.01,0.23-0.08,0.31-0.15c0.06-0.09,0.13-0.17,0.13-0.32c0,0,0-0.01,0-0.02
								c-0.02-0.35-0.32-0.62-0.66-0.6c-0.15,0.01-0.23,0.08-0.31,0.15c-0.06,0.09-0.13,0.17-0.13,0.32c0,0,0,0.01,0,0.01
								C321.73,316.14,322.02,316.41,322.37,316.4z"/>
							<path class="st1" d="M320.96,317.92c0.15-0.01,0.23-0.08,0.31-0.15c0.06-0.09,0.13-0.17,0.13-0.32c0,0,0-0.01,0-0.02
								c-0.02-0.35-0.32-0.62-0.66-0.6c-0.15,0.01-0.23,0.08-0.31,0.15c-0.06,0.09-0.13,0.17-0.13,0.32c0,0,0,0.01,0,0.01
								C320.31,317.66,320.61,317.93,320.96,317.92z"/>
							<path class="st1" d="M319.54,319.44c0.15-0.01,0.23-0.08,0.31-0.15c0.06-0.09,0.13-0.17,0.13-0.32c0,0,0-0.01,0-0.02
								c-0.02-0.35-0.32-0.62-0.66-0.6c-0.15,0.01-0.23,0.08-0.31,0.15c-0.06,0.09-0.13,0.17-0.13,0.32c0,0,0,0.01,0,0.01
								C318.89,319.18,319.19,319.45,319.54,319.44z"/>
							<path class="st1" d="M314.68,324.65c0.67-0.56,1.27-1.19,1.87-1.82c0.58-0.64,1.17-1.28,1.68-1.99
								c0.12-0.16,0.11-0.4-0.02-0.56c-0.16-0.19-0.45-0.22-0.64-0.06c-0.67,0.56-1.27,1.19-1.87,1.82
								c-0.58,0.64-1.17,1.28-1.68,1.99c-0.12,0.16-0.11,0.39,0.02,0.56C314.2,324.78,314.49,324.81,314.68,324.65z"/>
							<path class="st1" d="M331.05,350.23c0.1,0.26,0.47,0.24,0.82-0.04c0.56-0.45,1.05-0.96,1.55-1.48
								c0.47-0.53,0.96-1.06,1.36-1.65c0.16-0.23,0.23-0.49,0.16-0.66c-0.1-0.26-0.47-0.24-0.82,0.04
								c-0.56,0.45-1.05,0.96-1.55,1.48c-0.47,0.53-0.96,1.06-1.36,1.65C331.05,349.8,330.98,350.06,331.05,350.23z"/>
							<path class="st1" d="M336.18,345.57c0.21-0.07,0.35-0.21,0.49-0.34c0.12-0.15,0.25-0.3,0.3-0.51c0,0,0-0.01,0-0.02
								c0.12-0.49-0.18-0.76-0.67-0.6c-0.21,0.07-0.35,0.21-0.49,0.34c-0.12,0.15-0.25,0.3-0.3,0.51c0,0.01,0,0.02-0.01,0.02
								C335.4,345.46,335.7,345.73,336.18,345.57z"/>
							<path class="st1" d="M355.5,324.83c4.65-4.85,9.28-9.73,13.87-14.63l0.01-0.01c0.39-0.42,0.51-0.94,0.28-1.15
								c-0.24-0.22-0.74-0.05-1.13,0.37c-4.57,4.93-9.12,9.88-13.63,14.86c-0.26,0.29-0.35,0.64-0.19,0.8
								C354.86,325.22,355.22,325.12,355.5,324.83z"/>
							<path class="st1" d="M353.05,327.52c0.21-0.07,0.35-0.21,0.49-0.34c0.12-0.15,0.25-0.3,0.3-0.51c0-0.01,0-0.02,0.01-0.02
								c0.11-0.49-0.19-0.76-0.67-0.6c-0.21,0.07-0.35,0.21-0.49,0.34c-0.12,0.15-0.25,0.3-0.3,0.51c0,0,0,0.01,0,0.02
								C352.26,327.41,352.56,327.68,353.05,327.52z"/>
							<path class="st1" d="M350.48,330.27c0.21-0.07,0.35-0.21,0.49-0.34c0.12-0.15,0.25-0.3,0.3-0.51c0-0.01,0-0.02,0.01-0.02
								c0.11-0.49-0.19-0.76-0.67-0.6c-0.21,0.07-0.35,0.21-0.49,0.34c-0.12,0.15-0.25,0.3-0.3,0.51c0,0,0,0.01,0,0.02
								C349.7,330.16,350,330.43,350.48,330.27z"/>
							<path class="st1" d="M347.92,333.02c0.21-0.07,0.35-0.21,0.49-0.34c0.12-0.15,0.25-0.3,0.3-0.51c0-0.01,0-0.02,0.01-0.02
								c0.11-0.49-0.19-0.76-0.67-0.6c-0.21,0.07-0.35,0.21-0.49,0.34c-0.12,0.15-0.25,0.3-0.3,0.51c0,0,0,0.01,0,0.02
								C347.13,332.91,347.43,333.18,347.92,333.02z"/>
							<path class="st1" d="M339.12,342.46c1.15-1.08,2.23-2.22,3.31-3.36c1.06-1.16,2.13-2.31,3.12-3.53
								c0.23-0.28,0.32-0.61,0.19-0.79c-0.15-0.21-0.53-0.13-0.86,0.17c-1.15,1.08-2.23,2.22-3.31,3.36
								c-1.06,1.16-2.13,2.31-3.12,3.53c-0.23,0.28-0.32,0.61-0.19,0.79C338.41,342.84,338.79,342.76,339.12,342.46z"/>
							<path class="st1" d="M371.15,349.71c0.54-0.43,1.01-0.92,1.49-1.4c0.45-0.51,0.91-1.01,1.3-1.58
								c0.15-0.22,0.21-0.47,0.14-0.64c-0.11-0.25-0.47-0.24-0.81,0.02c-0.54,0.42-1.01,0.92-1.49,1.4
								c-0.45,0.51-0.91,1.01-1.3,1.58c-0.15,0.22-0.21,0.47-0.14,0.64C370.44,349.99,370.81,349.98,371.15,349.71z"/>
							<path class="st1" d="M375.26,345.3c0.2-0.06,0.34-0.19,0.47-0.32c0.12-0.15,0.24-0.29,0.29-0.49c0,0,0-0.01,0-0.02
								c0.1-0.48-0.2-0.75-0.67-0.6c-0.2,0.06-0.34,0.19-0.47,0.32c-0.12,0.15-0.24,0.29-0.29,0.49c0,0.01,0,0.02,0,0.02
								C374.49,345.18,374.79,345.45,375.26,345.3z"/>
							<path class="st1" d="M393.71,325.49c4.45-4.63,8.87-9.28,13.25-13.97l0.01-0.01c0.37-0.4,0.48-0.9,0.25-1.12
								c-0.24-0.22-0.73-0.07-1.1,0.33c-4.37,4.7-8.7,9.44-13.01,14.2c-0.25,0.28-0.33,0.62-0.17,0.78
								C393.09,325.87,393.44,325.77,393.71,325.49z"/>
							<path class="st1" d="M391.36,328.07c0.2-0.06,0.34-0.19,0.47-0.32c0.12-0.15,0.24-0.29,0.29-0.49c0-0.01,0-0.02,0-0.02
								c0.1-0.47-0.2-0.74-0.67-0.6c-0.2,0.06-0.34,0.19-0.47,0.32c-0.12,0.15-0.24,0.29-0.29,0.49c0,0,0,0.01,0,0.02
								C390.6,327.94,390.89,328.21,391.36,328.07z"/>
							<path class="st1" d="M388.92,330.69c0.2-0.06,0.34-0.19,0.47-0.32c0.12-0.15,0.24-0.29,0.29-0.49c0-0.01,0-0.02,0-0.02
								c0.1-0.47-0.2-0.74-0.67-0.6c-0.2,0.06-0.34,0.19-0.47,0.32c-0.12,0.15-0.24,0.29-0.29,0.49c0,0,0,0.01,0,0.02
								C388.15,330.57,388.45,330.84,388.92,330.69z"/>
							<path class="st1" d="M386.47,333.32c0.2-0.06,0.34-0.19,0.47-0.32c0.12-0.15,0.24-0.29,0.29-0.49c0-0.01,0-0.02,0-0.02
								c0.1-0.47-0.2-0.74-0.67-0.6c-0.2,0.06-0.34,0.19-0.47,0.32c-0.12,0.15-0.24,0.29-0.29,0.49c0,0,0,0.01,0,0.02
								C385.7,333.19,386,333.46,386.47,333.32z"/>
							<path class="st1" d="M378.06,342.33c1.1-1.02,2.13-2.12,3.16-3.2c1.01-1.11,2.03-2.21,2.97-3.38
								c0.22-0.27,0.3-0.59,0.17-0.77c-0.15-0.21-0.52-0.14-0.83,0.15c-1.1,1.02-2.13,2.12-3.16,3.2c-1.01,1.11-2.03,2.21-2.97,3.38
								c-0.22,0.27-0.3,0.59-0.17,0.77C377.38,342.69,377.75,342.62,378.06,342.33z"/>
						</g>
						<polygon class="st34" points="325.38,399.19 329.92,383.1 378.12,383.1 380.75,399.19 						"/>
						<g>
							<circle class="st8" cx="312.85" cy="415.07" r="10.16"/>
							<path class="st31" d="M318.96,415.07c0,3.37-2.74,6.11-6.11,6.11c-3.37,0-6.11-2.74-6.11-6.11s2.74-6.11,6.11-6.11
								C316.22,408.96,318.96,411.7,318.96,415.07z"/>
							<path class="st32" d="M308.83,413.96l3.48-9.19c0.19-0.49,0.66-0.82,1.19-0.82h12.12c1.11,0,1.68,1.32,0.93,2.13
								l-10.91,11.78c-0.91,0.98-2.31,1.34-3.58,0.93l-1.09-0.36C309.11,417.82,308.14,415.79,308.83,413.96z"/>
							<path class="st8" d="M315.19,415.07c0,1.29-1.05,2.34-2.34,2.34c-1.29,0-2.34-1.05-2.34-2.34s1.05-2.34,2.34-2.34
								C314.14,412.73,315.19,413.78,315.19,415.07z"/>
						</g>
						<g>
							<circle class="st8" cx="390.48" cy="415.07" r="10.16"/>
							<path class="st31" d="M384.37,415.07c0,3.37,2.74,6.11,6.11,6.11c3.37,0,6.11-2.74,6.11-6.11s-2.74-6.11-6.11-6.11
								C387.1,408.96,384.37,411.7,384.37,415.07z"/>
							<path class="st32" d="M394.49,413.96l-3.48-9.19c-0.19-0.49-0.66-0.82-1.19-0.82h-12.12c-1.11,0-1.68,1.32-0.93,2.13
								l10.91,11.78c0.91,0.98,2.31,1.34,3.58,0.93l1.09-0.36C394.21,417.82,395.19,415.79,394.49,413.96z"/>
							<path class="st8" d="M388.14,415.07c0,1.29,1.05,2.34,2.34,2.34c1.29,0,2.34-1.05,2.34-2.34s-1.05-2.34-2.34-2.34
								C389.18,412.73,388.14,413.78,388.14,415.07z"/>
						</g>
					</g>
					<g>
						
							<ellipse transform="matrix(0.228 -0.9737 0.9737 0.228 22.4506 643.7834)" class="st5" cx="417.19" cy="307.73" rx="22.99" ry="22.99"/>
						<g>
							<path class="st8" d="M421.45,295.49v20.28h3.85c0.76,0,1.08,0.54,1.08,1.8v0.61c0,1.26-0.33,1.8-1.08,1.8h-13.98
								c-0.76,0-1.08-0.54-1.08-1.8v-0.61c0-1.26,0.32-1.8,1.08-1.8h4.79v-16.18l-4.9,0.72c-0.94,0-1.15-2.02-1.15-3.03
								c0-0.54,0.32-0.9,0.94-1.01l8.97-1.66C420.55,294.62,421.45,295.06,421.45,295.49z"/>
						</g>
					</g>
				</g>
				<g>
					<polygon class="st6" points="325.08,290.43 325.08,308.54 367.84,309.65 367.84,288.57 					"/>
					<polygon class="st35" points="367.84,288.57 367.84,309.65 388.23,310.3 388.23,292.26 					"/>
					<polygon class="st5" points="323.83,287 368.84,285.16 368.84,291.05 323.83,292.92 					"/>
					<polygon class="st6" points="368.84,291.05 389.71,294.62 389.71,289.04 368.84,285.16 					"/>
				</g>
			</g>
			<g>
				<ellipse class="st23" cx="226.21" cy="414.9" rx="61.86" ry="3.56"/>
			</g>
			<g>
				<g>
					<g>
						<path class="st30" d="M256.08,374.07c1,9.94,9.36,24.49,12.6,32.6c0.96,2.39,5.48,1.05,4.97-1.47
							c-1.74-8.59-2.94-26-3.73-34.87C268.98,359.88,255.13,364.6,256.08,374.07z"/>
						<g>
							<defs>
								<path id="SVGID_1_" d="M268.81,406.63c0,0-0.97,2.73,0.68,6.41c-0.3,0.13-0.07,1.36,0.46,1.62c0.63,0.31,5.22,0.23,6.15-0.5
									c0.2-0.35-0.03-0.82-0.03-0.82s1.15,0.44,4.41-0.18c3.26-0.62,5.01-1.56,6.28-2.36c0.38-0.24,0.12-1.11-0.31-0.97
									c0,0-0.28-2.26-2.17-2.14c-3.88,0.25-6.66-1.33-8.65-2.53c-0.98-0.59-1.97-1.09-2.58-1.12
									C271.48,403.96,269.45,404.88,268.81,406.63z"/>
							</defs>
							<use xlink:href="#SVGID_1_"  style="overflow:visible;fill:#ED0C37;"/>
							<clipPath id="SVGID_2_">
								<use xlink:href="#SVGID_1_"  style="overflow:visible;"/>
							</clipPath>
							<path class="st36" d="M269.49,413.05c2.75,0.32,6.6-0.1,6.6-0.1s7.43-0.13,10.36-3.11c2.93-2.98,5.46,0.19,5.46,0.19
								l-12.16,9.69l-7.95-0.62l-3.55-2.99C268.24,416.1,267.95,412.87,269.49,413.05z"/>
							<path class="st37" d="M268.22,406.85c0,0,1.07,1.86,3.25,1.39c2.19-0.46,2.41-1.81,1.91-4.15S265.92,403.3,268.22,406.85z"/>
						</g>
					</g>
					<g>
						<path class="st38" d="M223.56,302.91c0,0,14.29,25.71,19.01,36.22c4.72,10.51,10.7,36.46,10.7,36.46s11.75,2.47,17.91-3.04
							c0,0-1.97-27.38-5.33-39.67c-3.35-12.3-16.1-42.48-16.1-42.48C244.63,279.56,218.44,292.08,223.56,302.91z"/>
						<path class="st31" d="M235.25,323.03c0.17-0.17,1.14-4.69,4.04-9.76c2.52-4.41,8.6-7.87,9.27-7.33
							c1.15,0.92-7.93,7.66-9.69,12.53c0,0,10.1-7.35,10.81-6.38C250.33,312.99,239.22,319.06,235.25,323.03z"/>
					</g>
				</g>
				<g>
					<path class="st16" d="M233.74,239.54c2.36,10.87,6.02,25.35,14.08,32.42c8.07,7.07,25.58,10.99,26.41,10.99
						c1.95,0.45,4.04-9.84,2.49-11.03c-1.55-1.19-15.32-6.75-17.77-9.11c-4.37-4.22-2.51-29.89-7.46-35.49
						C246.56,221.71,230.99,226.87,233.74,239.54z"/>
					<path class="st39" d="M277.76,273.77c0,0,6.14,5.1,6.5,6.49c0.36,1.39,0.22,3.68-0.28,4.26s-4.25,2.46-5.69,1.48
						c-1.43-0.98-3.41-3.23-3.41-3.23l0.68-2.51c0,0-0.46,1.72-4.18-0.61C267.67,277.31,274.23,270.25,277.76,273.77z"/>
				</g>
				<g>
					<g>
						<path class="st30" d="M192.21,366.69c-7.4,6.71-14.14,22.07-18.74,29.5c-1.35,2.19,2.41,5.03,4.13,3.12
							c5.88-6.51,19.17-17.81,25.83-23.72C211.28,368.63,199.26,360.3,192.21,366.69z"/>
						<g>
							<defs>
								<path id="SVGID_3_" d="M174.29,395.44c0,0-2.82,0.68-5.01,4.07c-0.28-0.18-1.18,0.68-1.1,1.27c0.09,0.7,2.65,4.5,3.77,4.89
									c0.4-0.02,0.67-0.47,0.67-0.47s0.26,1.2,2.55,3.6c2.29,2.4,4.04,3.35,5.4,3.97c0.41,0.19,1-0.51,0.64-0.79
									c0,0,1.75-1.47,0.61-2.99c-2.33-3.12-2.52-6.31-2.59-8.63c-0.04-1.15-0.16-2.25-0.47-2.77
									C178,396.22,176.12,395.02,174.29,395.44z"/>
							</defs>
							<use xlink:href="#SVGID_3_"  style="overflow:visible;fill:#ED0C37;"/>
							<clipPath id="SVGID_4_">
								<use xlink:href="#SVGID_3_"  style="overflow:visible;"/>
							</clipPath>
							<path class="st40" d="M169.29,399.51c1.24,2.48,3.68,5.47,3.68,5.47s4.16,6.16,8.26,6.99c4.1,0.83,2.81,4.68,2.81,4.68
								l-14.75-4.92l-3.81-7l0.58-4.61C166.05,400.13,168.6,398.12,169.29,399.51z"/>
							<path class="st41" d="M173.79,395.07c0,0-0.98,1.91,0.6,3.49c1.58,1.58,2.83,1.03,4.52-0.66
								C180.61,396.21,175.52,391.21,173.79,395.07z"/>
						</g>
					</g>
					<g>
						<path class="st8" d="M208.42,293.27c0,0,1.98,37.7-2.25,47.57c-4.23,9.87-15.23,25.94-15.23,25.94s3.02,9.36,14.16,10.7
							c0,0,16.81-11.84,23.41-29.77c6.6-17.93,12.13-37.67,9.45-52.29C236.47,287.2,210.54,281.26,208.42,293.27z"/>
						<path class="st42" d="M213.33,292.92c0,0,0.24,31.39-1.23,43.54c-1.42,11.79-19.54,33.48-19.54,33.48"/>
					</g>
				</g>
				<g>
					<g>
						<path class="st1" d="M250.62,228.18c2.9,5.78-2.28,27.71-2.28,37.29c0,7.79,1.28,20.82,2.43,25.74
							c0.31,1.31-0.28,2.66-1.44,3.34c-4.48,2.64-10.45,4.02-14.13,4.38c-14.19,1.36-21.04-1.12-24.27-2.34
							c-1.74-0.66-2.78-2.43-2.51-4.27c0.72-4.79,2.74-16.51,1.01-27.29c-2.26-14.11-5.96-33.3,0.66-39.22
							c6.62-5.92,19.01-9.61,19.01-9.61S247.04,221.04,250.62,228.18z"/>
						<g>
							<path class="st31" d="M232.11,210.17c0,0-3.18-0.53-7.55-5.95c-2.86-3.56-6.84-19.64,5.78-22.08
								c12.62-2.43,16.33,6.09,16.91,11.67c0.58,5.58-5.68,10.17-8.52,12.18C235.9,208.01,232.11,210.17,232.11,210.17z"/>
							<path class="st30" d="M229.03,203.69c0,0-0.38,4.87-1.82,8.67c-1.44,3.8-2.98,4.97-4.8,6.58
								c-1.82,1.62,7.25,11.24,15.32,13.69c0,0,5.85-7.13,3.17-11.1c-2.68-3.97-4.81-4.32-3.85-9.63c0.84-4.63,1.34-7.19,1.34-7.19
								L229.03,203.69z"/>
							<g>
								<g>
									<g>
										<path class="st43" d="M229.03,203.69c0,0-0.41,3.6,1.04,5.15c1.45,1.54,4.05,5.27,9.98,4.84
											c7.91-0.58,4.84-13.14,4.84-13.14s0.83-4.83,0-8.8c-0.83-3.97-8.66-6.05-15.04-4.1c0,0-1.83,1.74-1.13,9.54
											c0,0-1.18-1.42-3.03-0.41c-1.4,0.77-1.55,2.58-1.08,4.29C225.19,203.1,227.33,204.87,229.03,203.69z"/>
									</g>
									<path class="st44" d="M228.37,202.94l-0.7-1.85l1.19-0.49c0,0-0.77-3.46-2.7-2.19
										C224.58,199.45,226.39,203.64,228.37,202.94z"/>
								</g>
								<path class="st31" d="M229.22,200.17c0,0-0.78,4.87-0.66,7.05c0.12,2.17,2.26,8.94,12.17,8.34c9.84-0.6,6.32-11.27,4.65-12
									c0.06,0.71-0.29,1.85-0.98,2.35c-0.4-1-1.56-1.71-3.17-1.37c-1.41-0.8-3.03-0.3-4.73,0.71l-1.22,0.86
									c-3.06-0.75-4.65-2.77-5.04-5.81L229.22,200.17z"/>
								<g>
									<path class="st1" d="M237.74,206.3c0,0,5.2,0,5.33,0.35c0.12,0.35-0.62,1.06-2.66,1.06
										C238.36,207.71,237.74,206.3,237.74,206.3z"/>
									<path class="st44" d="M237.62,206.22c0.18-0.12,0.13-0.04,0.16-0.06l0.05,0l0.09,0l0.18,0.01l0.36,0.01l0.73,0.03
										l1.46,0.05c0.49,0.02,0.97,0.05,1.46,0.1c0.24,0.03,0.49,0.05,0.73,0.11c0.06,0.01,0.12,0.03,0.19,0.06
										c0.03,0.02,0.07,0.03,0.1,0.1c0.01,0.04,0.02,0.08,0.01,0.12c-0.01,0.15-0.1,0.27-0.19,0.36c-0.38,0.35-0.88,0.5-1.36,0.59
										c-0.49,0.09-0.97,0.12-1.47,0.1c-0.49-0.02-0.99-0.14-1.43-0.39c-0.22-0.12-0.43-0.26-0.62-0.44
										c-0.09-0.09-0.18-0.18-0.26-0.28l-0.11-0.16l-0.05-0.08l-0.02-0.04l-0.01-0.02C237.62,206.4,237.58,206.26,237.62,206.22z
										 M237.85,206.38c0.05-0.03,0.01-0.15,0.02-0.12l0.01,0.02l0.02,0.04l0.04,0.07l0.09,0.14c0.07,0.09,0.14,0.18,0.22,0.27
										c0.16,0.17,0.35,0.31,0.55,0.43c0.4,0.24,0.87,0.35,1.35,0.39c0.47,0.03,0.96,0,1.43-0.07c0.46-0.08,0.95-0.22,1.29-0.53
										c0.48-0.48-0.37-0.43-0.77-0.49c-0.48-0.04-0.97-0.06-1.45-0.07l-1.45-0.03l-0.73,0.01l-0.36,0.01l-0.18,0l-0.09,0l-0.05,0
										C237.78,206.41,237.7,206.49,237.85,206.38z"/>
								</g>
								<g>
									<path class="st31" d="M238.42,199.87c-0.04,0.44-0.61,0.47-1.32,0.41c-0.7-0.06-1.27-0.19-1.23-0.63
										c0.04-0.44,0.64-0.75,1.34-0.69C237.91,199.03,238.45,199.43,238.42,199.87z"/>
									<path class="st31" d="M233.76,197.77c-0.02,0.07,2-0.64,2.64-0.63c0.64,0.01,3.06,0.39,3.27,0.16
										c0.2-0.24,0.36-1.05,0.36-1.05s-3.3-0.32-3.98-0.15C235.37,196.28,233.94,197.22,233.76,197.77z"/>
								</g>
								<g>
									<path class="st31" d="M244.86,200.41c-0.04,0.44-0.61,0.47-1.32,0.41s-1.27-0.19-1.23-0.63c0.04-0.44,0.64-0.75,1.34-0.69
										S244.9,199.97,244.86,200.41z"/>
									<path class="st31" d="M245.76,198.78c0.01,0.07-0.87-1.05-1.3-1.13c-0.44-0.08-2.54,0.1-2.64-0.17
										c-0.1-0.26-0.1-1.09-0.1-1.09s2.8,0.21,3.24,0.48C245.4,197.14,245.72,198.2,245.76,198.78z"/>
								</g>
								<g>
									<path class="st45" d="M241.24,204.17c0,0-1.63-0.05-1.59-0.5c0.04-0.45,3.44-0.93,3.63-0.61
										C243.47,203.37,241.97,203.96,241.24,204.17z"/>
									<path class="st44" d="M241.52,197.4c0,0-0.48,2.04-0.23,2.77c0.24,0.73,1.74,2.39,1.77,2.74c0.03,0.35-1.69,1.2-1.82,1.25
										c-0.13,0.05,2.46-0.34,2.38-1.15c-0.08-0.8-2-2.81-2.06-3.21C241.49,199.42,241.52,197.4,241.52,197.4z"/>
								</g>
								<path class="st31" d="M229.92,200.77c0.51-0.34,1.34-3.28,0.45-6.11c-0.79-2.54,1.21-4.41,2.62-4.56
									c1.61-0.18,6.85,1.31,8.92,1.05c4.54-0.56,8.05-1.9,8.04-2.73c-0.01-0.84-3.33,0.03-3.33,0.03s5.06-1.29,4.6-5.52
									c0,0-3.8,0.28-7.2-0.88c-3.4-1.16-11.53-2.51-15.85,0.7c-2.83,2.1-4.84,8.95-1.09,12.43
									C228.8,196.76,228.96,201.43,229.92,200.77z"/>
							</g>
						</g>
						<path class="st46" d="M241.72,228.27c0,0-2.16,42.93-1.69,46.97c0.48,4.04-0.31,19.55,9.49,22.54c0,0-4.38-22.39-3.76-35.85
							C246.38,248.48,241.72,228.27,241.72,228.27z"/>
					</g>
					<path class="st18" d="M238.59,218.55c0,0,4.22,13.44,3.98,30.97c-0.23,17.52-0.95,53.47,12.02,52.64c0,0-5.47-22.08-5.13-30.11
						c0.33-8.02,4.68-37.51,3.08-42.56C250.23,222.18,238.59,218.55,238.59,218.55z"/>
					<g>
						<path class="st18" d="M223.7,217.92c0,0,8.74,13.68,11.55,36.87c1.34,11.05-0.16,28.57-1.83,39.76
							c-1.92,12.88-27.13,12.86-28.75,9.48c-1.62-3.38,5.6-24.77,3.35-36.92c-2.25-12.15-3.58-32-0.89-38.53
							C209.82,222.06,223.7,217.92,223.7,217.92z"/>
						<path class="st47" d="M211.06,241.16c0,0,4.29,20.69,3.74,31.64c-0.55,10.95-4.04,33.08-4.04,33.08"/>
						<path class="st16" d="M208.04,230.25c-0.54,1.31-0.91,3.18-1.14,5.41c2.36,18.05,12.51,38.27,28.1,45.53
							c0.51-5.86,0.82-12.05,0.74-17.6c-10.44-10.4-18.43-23.93-24.55-37.26C209.77,227.51,208.63,228.82,208.04,230.25z"/>
					</g>
				</g>
				<g>
					<path class="st30" d="M269.1,277.37c0,0,7.77,1.82,8.72,2.9c0.95,1.08,2.54,4.77,2.35,5.52c-0.19,0.74-4.3,2.37-6.02,2.13
						c-1.72-0.24-3.6-1.21-3.6-1.21c0.26-0.92,0.19-1.74-0.77-2.04c-1.01-0.31-2.08,0.23-3.84,1.02
						C261.94,287.49,264.36,275.8,269.1,277.37z"/>
					<path class="st34" d="M206.78,239.76c2.09,11.58,16.9,28.86,23.24,34.29c5.56,4.77,32.99,12.86,34.2,12.92
						c2.81,0.6,6.39-9.52,4.2-10.83c-2.18-1.31-26.64-12.56-29.28-15.5c-2.65-2.94-12.36-29.1-19.26-35.07
						C212.98,219.6,204.42,226.69,206.78,239.76z"/>
				</g>
			</g>
		</g>
		<g>
			<g>
				<path class="st48" d="M653.08,221.13c11.24-16.2,22.84-12.69,27.1-5.86c4.26,6.83,1.19,16.98-7.69,25.36
					c-6.37,6.38-19.11,10.82-29.35,13.26c-7.16-7.71-15.29-18.48-17.05-27.32c-2.72-11.9,0.35-22.05,7.69-25.36
					C641.13,197.9,652.73,201.41,653.08,221.13z"/>
			</g>
			<g class="st49">
				<path class="st50" d="M680.19,215.28c-3.64-5.83-12.63-9.24-22.18-0.02c8.13-6.41,19.79-6.54,20.81,5.19
					c1.07,12.32-8.8,20.73-20.17,18.58c-14.92-2.82-11.25-15.33-18.34-21.46c-5.54-4.66-12.12,2.39-12.41,8.16
					c-0.13,2.62,0.14,5.24,0.59,7.73c3.36,7.13,9.28,14.64,14.66,20.43c10.24-2.44,22.98-6.88,29.35-13.26
					C681.37,232.25,684.45,222.11,680.19,215.28z"/>
			</g>
		</g>
		<g>
			<ellipse class="st23" cx="515.53" cy="413.66" rx="61.86" ry="3.56"/>
			<g>
				<g>
					<g>
						<g>
							<g>
								<g>
									<defs>
										<path id="SVGID_5_" d="M526.92,399.72c0,0,2.57,2.25,3,2.88c0.42,0.63,2.08,5.3,2.08,5.3c-0.35,0.67-1.51,1.65-2.58,1.78
											l-2.08-2.68c0,0-1.06,4.68-2.14,6.2c-1.3,1.84-8.75,3.96-9.86,3.4c0,0-1.37-2.73,0.97-4.23c4.31-2.76,4.42-8.56,4.42-8.56
											C520.08,400.41,523.82,397.81,526.92,399.72z"/>
									</defs>
									<use xlink:href="#SVGID_5_"  style="overflow:visible;fill:#FD6141;"/>
									<clipPath id="SVGID_6_">
										<use xlink:href="#SVGID_5_"  style="overflow:visible;"/>
									</clipPath>
									<path class="st51" d="M514.45,416.2c0.13-0.07,9.53-1.33,10.64-4.11c0.87-2.17,1.45-5.83,1.95-6.26
										c0.5-0.43,2.87-3.23,2.87-3.23l3.76,6.55l-14.15,11.91L514.45,416.2z"/>
								</g>
								<path class="st52" d="M518.96,409.95l1.28,0.27c0,0,0.91-1.25,0.83-2.38l-1.25-0.44c-0.23-0.08-0.48,0.04-0.56,0.26
									l-0.62,1.69C518.55,409.62,518.7,409.9,518.96,409.95z"/>
							</g>
							<path class="st30" d="M510.4,270.06c-0.03-0.45-11.93,52.54-11.5,66.79c0.27,8.88,16.86,49.72,21.81,66.98
								c0.95,3.31,6.1-0.57,5.7-4.01c-1.94-16.52-1.82-25.22-9.11-61.12c-1.14-5.59,18.93-55.71,17.34-67.46
								C533.05,259.5,516.67,253.1,510.4,270.06z"/>
							<path class="st53" d="M534.64,271.24c-1.59-11.74-17.97-18.13-24.23-1.18c-0.03-0.43-10.8,47.51-11.48,64.44
								c5.35-4.06,12.47-1.92,18.62,1.31C519.91,323.59,536.07,281.82,534.64,271.24z"/>
						</g>
						<g>
							<g>
								<g>
									<defs>
										<path id="SVGID_7_" d="M544.02,403.17c0,0,1.6,3.01,1.78,3.76c0.17,0.74,0.06,5.69,0.06,5.69
											c-0.57,0.5-1.99,1.01-3.05,0.75l-0.99-3.24c0,0-1.53,3.17-3.08,4.2c-1.87,1.26-8.52,2.79-9.64,2.25
											c0,0-1.53-2.97,0.93-4.23c6.18-3.17,6.72-7.55,6.72-7.55C537.38,401.38,541.8,400.28,544.02,403.17z"/>
									</defs>
									<use xlink:href="#SVGID_7_"  style="overflow:visible;fill:#FD6141;"/>
									<clipPath id="SVGID_8_">
										<use xlink:href="#SVGID_7_"  style="overflow:visible;"/>
									</clipPath>
									<path class="st54" d="M528.34,416.29c0.15-0.02,7.75-0.74,9.58-2.2c1.83-1.46,3.42-4.93,4.05-5.16c0.62-0.22,3.83-2,3.83-2
										l1.19,7.46l-17.46,6.1L528.34,416.29z"/>
								</g>
								<path class="st52" d="M533.25,410.36l1.1,0.71c0,0,1.3-0.85,1.62-1.93l-1.02-0.86c-0.18-0.15-0.46-0.13-0.62,0.05
									l-1.18,1.36C532.98,409.9,533.02,410.21,533.25,410.36z"/>
							</g>
							<path class="st30" d="M522.15,273.48c-0.09,4.61,0.62,53.81,4.88,67.28c2.65,8.39,8.23,48.67,10.12,62.43
								c0.69,5.02,6.14,5.02,6.53,0.22c1.47-17.82,7.23-42.61,0.69-64.39c-1.63-5.44,5.94-61.61,1.25-72.3
								C540.92,256.02,522.5,256.42,522.15,273.48z"/>
							<path class="st53" d="M544.14,335.38c0.15-13.89,5.64-59.17,1.48-68.66c-4.69-10.7-23.12-10.3-23.46,6.76
								c-0.09,4.25,0.51,46.25,3.93,63.41C531.41,333.88,538.13,333.63,544.14,335.38z"/>
						</g>
						<g>
							<path class="st18" d="M510.93,264.29l-0.53,4.84c0,0-8.65,21.94-12.38,57.54c9.23-2.56,26.66,5.97,52.51,2.34
								c0,0,10.23-45.6-7.56-65.88C525.18,242.84,511.87,253.56,510.93,264.29z"/>
							<path class="st16" d="M510.96,268.94c0,0-0.69,6.83,11.13,8.03c11.82,1.2,23.53-7.33,23.24-9.84
								C545.03,264.63,510.96,268.94,510.96,268.94z"/>
							<path class="st55" d="M540.13,265.56c0,0,13.53,22.51,5.21,62.67"/>
						</g>
					</g>
					<g>
						<g>
							<path class="st30" d="M462.85,251.42c-0.09-0.01-4.99-0.3-5.84-0.07c-0.79,0.21-2.79,1.19-3.37,1.48
								c-1.35,0.68-0.03,1.65,0.99,1.56c1.45-0.13,1.99-0.39,2.59-0.3c0.34,0.05,0.62,0.13,0.88,0.22
								c-0.54,0.46-2.77,2.02-4.48,2.68c-0.96,0.37-1.83,0.63-3.22,1.07c-0.62,0.2-0.52,1.02,0.19,1.15c0.5,0.09,2.22,0.1,3.73-0.47
								c0.6-0.23,1.2-0.48,1.76-0.73c0.01,0.06-1.28,0.81-1.91,1.1c-0.91,0.42-1.83,0.59-3.17,1.08c-0.61,0.23-0.45,0.94,0.27,1.04
								c0.19,0.03,0.56,0.06,1.01,0.05c-0.25,0.32-0.07,0.83,0.49,0.91c0.27,0.03,0.82-0.01,1.51-0.12
								c0.08,0.17,0.26,0.34,0.54,0.35c4.99,0.01,7.96-2.71,10.69-3.34C469.86,254.68,466.1,252.04,462.85,251.42z"/>
							<path class="st38" d="M520.86,215.88c-3.39-1.92-9.17-2.56-13.73,3.94c-4.56,6.5-6.57,21.78-11.4,26.95
								c-2.88,3.08-29.06,3.97-30.92,4.91c-1.21,0.61-0.49,6.43-0.09,7.51c0.83,2.26,29.17,3.47,36.88,0.43
								C509.29,256.58,528.14,220.01,520.86,215.88z"/>
						</g>
						<path class="st31" d="M509.9,186.95c0.21-2.37,0.2-6.31,3.02-9.73c2.82-3.42,13.84-6.84,19.61-2.85
							c7.09,4.91,4.78,9.51,13.62,13.08c8.84,3.57,6.17,7.53,3.64,11.57c-2.53,4.04-1.64,4.71,2.45,8.95
							c4.09,4.24,9.51,14.79,0,20.81c-9.51,6.02-30.11,2.08-38.36-5.87c-8.25-7.95,1.49-13.19-0.8-17.93
							c-2.29-4.74-4.98-3.69-4.98-8.73C508.1,192.39,509.58,190.61,509.9,186.95z"/>
						<path class="st8" d="M527.75,210.24c0,0-18.76,3.13-19.39,8.85c-0.26,2.4,3.01,7.24,2.16,9.7c-1.23,3.59-3.2,5.68,0.43,14.21
							c2.93,6.9-2.1,21.17-1.95,22.87c0.57,6.35,10.64,7.51,14.77,7.41c5.89-0.14,22.83-3.93,22.83-7.64
							c0-3.22-7.84-10.13-8.6-15.64s13.59-27.61,10.74-32.42C543.22,208.26,527.75,210.24,527.75,210.24z"/>
						<g>
							<path class="st30" d="M545.75,269.4c-0.09,0.02-4.85,1.24-5.58,1.72c-0.68,0.44-2.29,1.98-2.76,2.44
								c-1.08,1.06,0.47,1.58,1.42,1.18c1.35-0.57,1.77-0.98,2.38-1.07c0.34-0.05,0.63-0.06,0.91-0.06
								c-0.37,0.6-2.01,2.77-3.44,3.92c-0.8,0.65-1.55,1.16-2.74,2.01c-0.53,0.38-0.18,1.13,0.53,1.04c0.5-0.06,2.14-0.58,3.41-1.59
								c0.5-0.4,1-0.82,1.45-1.24c0.03,0.05-0.97,1.16-1.48,1.63c-0.74,0.68-1.57,1.12-2.69,1.99c-0.51,0.4-0.14,1.03,0.57,0.91
								c0.19-0.03,0.55-0.12,0.98-0.26c-0.14,0.39,0.18,0.82,0.75,0.71c0.26-0.05,0.78-0.26,1.4-0.58c0.13,0.14,0.35,0.23,0.62,0.16
								c2.96-0.68,8.01-4.92,9.16-6.45C553.42,270.36,549.04,269,545.75,269.4z"/>
							<path class="st8" d="M541.65,212.96c-3.03,2.45-5.74,7.6-1.37,14.22c4.37,6.62,16.82,13.51,19.86,19.9
								c1.81,3.81-15.01,20.17-15.04,22.25c-0.03,2.08,3.16,7.16,4.39,7.75c2.17,1.05,25.79-21.88,25.79-30.16
								C575.28,238.64,548.16,207.7,541.65,212.96z"/>
						</g>
						<path class="st30" d="M530.61,195.77c0,0,0.38,4.87,1.82,8.67c1.44,3.8,2.98,4.97,4.8,6.58c1.82,1.62-7.25,11.24-15.32,13.69
							c0,0-5.85-7.13-3.17-11.1c2.68-3.97,4.81-4.32,3.85-9.63c-0.84-4.63-1.34-7.19-1.34-7.19L530.61,195.77z"/>
						<g>
							<g>
								<path class="st1" d="M518.14,198.24c0,2.28-0.94,4.13-2.09,4.13s-2.09-1.85-2.09-4.13c0-1.54,0.43-2.88,1.07-3.59
									c0.2-0.25-0.05-0.45-0.25-0.19c-0.68,0.78-1.13,2.16-1.13,3.78c0,2.49,1.05,4.45,2.4,4.45s2.4-1.95,2.4-4.45
									c0-1.31-0.2-2.3-0.67-3.11c-0.05,0.06-0.18,0.16-0.24,0.23C517.93,196.1,518.14,197.09,518.14,198.24z"/>
							</g>
							<g>
								<path class="st43" d="M530.61,195.77c0,0-1.31,9.91-10.62,9.21c-4.68-0.35-7.07-9.95-5.24-12.36c0,0-0.83-4.83,0-8.8
									c0.83-3.97,8.66-6.05,15.04-4.1c0,0,1.83,1.74,1.13,9.54c0,0,1.18-1.42,3.03-0.41c1.4,0.77,1.55,2.58,1.08,4.29
									C534.45,195.18,532.32,196.95,530.61,195.77z"/>
								<path class="st44" d="M531.27,195.01l0.7-1.85l-1.19-0.49c0,0,0.77-3.46,2.7-2.19
									C535.07,191.53,533.25,195.72,531.27,195.01z"/>
								<g>
									<path class="st1" d="M534.24,198.24c0,2.28-0.94,4.13-2.09,4.13c-1.15,0-2.09-1.85-2.09-4.13c0-1.54,0.43-2.88,1.07-3.59
										c0.2-0.25-0.05-0.45-0.25-0.19c-0.68,0.78-1.13,2.16-1.13,3.78c0,2.49,1.05,4.45,2.4,4.45s2.4-1.95,2.4-4.45
										c0-1.31-0.2-2.3-0.67-3.11c-0.05,0.06-0.18,0.16-0.24,0.23C534.02,196.1,534.24,197.09,534.24,198.24z"/>
								</g>
							</g>
							<g>
								<g>
									<path class="st18" d="M517.53,198.79c0,0,0.63-1.55,5.52-1.04C522.5,200.34,517.92,201.61,517.53,198.79z"/>
									<g>
										<path class="st44" d="M517.53,198.79c0,0,2.95,0.01,5.52-1.04"/>
										<path class="st44" d="M517.53,198.79c1.88-0.21,3.71-0.51,5.52-1.04c-0.84,0.45-1.76,0.71-2.69,0.88
											C519.43,198.79,518.48,198.88,517.53,198.79z"/>
									</g>
								</g>
								<g>
									<path class="st31" d="M514.78,192.49c0.04,0.44,0.61,0.47,1.32,0.41c0.7-0.06,1.27-0.19,1.23-0.63
										c-0.04-0.44-0.64-0.75-1.34-0.69C515.28,191.65,514.74,192.05,514.78,192.49z"/>
									<path class="st31" d="M513.32,190.66c-0.02,0.06,1.63-1.41,2.08-1.39c0.44,0.02,2.09,0.64,2.26,0.41
										c0.16-0.23,0.32-0.73,0.32-0.73s-2.32-0.44-2.81-0.28C514.68,188.83,513.5,190.11,513.32,190.66z"/>
								</g>
								<g>
									<path class="st31" d="M521.23,191.95c0.04,0.44,0.61,0.47,1.32,0.41c0.7-0.06,1.27-0.19,1.23-0.63
										c-0.04-0.44-0.64-0.75-1.34-0.69C521.73,191.11,521.19,191.51,521.23,191.95z"/>
									<path class="st31" d="M525.4,189.15c0.04,0.06-2.19-0.85-2.74-0.71s-2.33,1.04-2.57,0.85s-0.5-0.64-0.5-0.64
										s2.6-0.88,3.23-0.86C523.45,187.82,525.1,188.65,525.4,189.15z"/>
								</g>
								<g>
									<path class="st45" d="M518.4,196.25c0,0,1.63-0.05,1.59-0.5c-0.04-0.45-3.44-0.93-3.63-0.61
										C516.17,195.45,517.67,196.04,518.4,196.25z"/>
									<path class="st44" d="M518.12,189.48c0,0,0.48,2.04,0.23,2.77c-0.24,0.73-1.74,2.39-1.77,2.74
										c-0.03,0.35,1.69,1.2,1.82,1.25c0.13,0.05-2.46-0.34-2.38-1.15c0.08-0.8,2-2.81,2.06-3.21
										C518.15,191.5,518.12,189.48,518.12,189.48z"/>
								</g>
							</g>
						</g>
						<path class="st31" d="M527.75,180.43c-7.76,0.82-11.2,8.13-16.89,8.13c-3.52-6.11,7.23-21.63,19.91-9.58
							c5.81,5.52,0.57,9.75,0.57,9.75l-1.29,4.46c0,0,0.11-3.35-1.08-4.64C525.46,184.77,527.75,180.43,527.75,180.43z"/>
					</g>
				</g>
			</g>
		</g>
		<g>
			<path class="st56" d="M476.98,139.29l-79.74-19.63l0,0l-10.08-2.48c-3.93-0.97-7.89,1.43-8.86,5.36l-7.92,32.19l0,0l-0.45,1.83
				l-3.62,14.72c-0.97,3.93,1.43,7.89,5.36,8.86l88.4,21.76c3.93,0.97,7.89-1.43,8.86-5.36l1.06-4.3l0,0l3.02-12.25l0,0l4.4-17.87
				l0,0l3.88-15.75C482.03,143.23,480.11,140.06,476.98,139.29z"/>
			<g>
				<path class="st6" d="M460.07,199.33l-91.28-22.47c-3.13-0.77-5.04-3.93-4.27-7.06l12.71-51.63c0.77-3.13,3.93-5.04,7.06-4.27
					l91.28,22.47c3.13,0.77,5.04,3.93,4.27,7.06l-12.71,51.63C466.36,198.19,463.2,200.1,460.07,199.33z"/>
				<path class="st5" d="M382.94,131.83c-3.01,8.02-2.01,19.05,6.02,23.06c28.73,17.11,59.32,15.6,87,4.31l3.88-15.75
					c0.77-3.14-1.14-6.3-4.28-7.08l-79.74-19.63C389.84,120.14,385.54,125.97,382.94,131.83z"/>
				
					<rect x="365.91" y="164.25" transform="matrix(0.971 0.239 -0.239 0.971 52.8954 -95.1305)" class="st8" width="105.67" height="12.62"/>
				<path class="st8" d="M414.02,135.03l-32.17-7.92c-1.26-0.31-2.02-1.58-1.71-2.83l0.39-1.58c0.31-1.26,1.58-2.02,2.83-1.71
					l32.17,7.92c1.26,0.31,2.02,1.58,1.71,2.83l-0.39,1.58C416.54,134.57,415.28,135.34,414.02,135.03z"/>
				<path class="st8" d="M440.92,148.15l-61.71-15.19c-0.63-0.15-1.01-0.79-0.86-1.42l0.19-0.79c0.15-0.63,0.79-1.01,1.42-0.86
					l61.71,15.19c0.63,0.15,1.01,0.79,0.86,1.42l-0.19,0.79C442.18,147.92,441.55,148.3,440.92,148.15z"/>
				<g>
					<path class="st1" d="M428.51,159.8l-2.81-0.69c-0.88-0.22-1.42-1.11-1.2-1.99l0.27-1.11c0.22-0.88,1.11-1.42,1.99-1.2
						l2.81,0.69c0.88,0.22,1.42,1.11,1.2,1.99l-0.27,1.11C430.28,159.48,429.39,160.02,428.51,159.8z"/>
					<path class="st1" d="M436.15,161.68l-2.81-0.69c-0.88-0.22-1.42-1.11-1.2-1.99l0.27-1.11c0.22-0.88,1.11-1.42,1.99-1.2
						l2.81,0.69c0.88,0.22,1.42,1.11,1.2,1.99l-0.27,1.11C437.92,161.36,437.03,161.9,436.15,161.68z"/>
					<path class="st1" d="M443.79,163.56l-2.81-0.69c-0.88-0.22-1.42-1.11-1.2-1.99l0.27-1.11c0.22-0.88,1.11-1.42,1.99-1.2
						l2.81,0.69c0.88,0.22,1.42,1.11,1.2,1.99l-0.27,1.11C445.56,163.24,444.67,163.78,443.79,163.56z"/>
				</g>
				<g>
					<path class="st18" d="M461.44,140.86c-0.9-1.58-2.42-2.8-4.32-3.27c-3.69-0.91-7.41,1.35-8.32,5.03
						c-0.91,3.69,1.35,7.41,5.03,8.32c1.9,0.47,3.81,0.09,5.34-0.89c-0.85-1.48-1.15-3.27-0.71-5.05
						C458.9,143.22,460,141.78,461.44,140.86z"/>
					<path class="st18" d="M466.78,139.97c-1.9-0.47-3.81-0.09-5.34,0.89c0.85,1.48,1.15,3.27,0.71,5.05
						c-0.44,1.78-1.54,3.23-2.98,4.14c0.9,1.58,2.42,2.8,4.32,3.27c3.69,0.91,7.41-1.35,8.32-5.03
						C472.72,144.6,470.47,140.88,466.78,139.97z"/>
				</g>
			</g>
		</g>
	</g>
</g>
<g id="DESIGNED_BY_FREEPIK">
</g>
</svg>
