<?xml version="1.0" encoding="utf-8"?>
<!-- Generator: Adobe Illustrator 24.0.1, SVG Export Plug-In . SVG Version: 6.00 Build 0)  -->
<svg version="1.1" id="Layer_1" xmlns="http://www.w3.org/2000/svg" xmlns:xlink="http://www.w3.org/1999/xlink" x="0px" y="0px"
	 viewBox="0 0 750 500" style="enable-background:new 0 0 750 500;" xml:space="preserve">
<style type="text/css">
	.st0{display:none;}
	.st1{display:inline;fill:#FFFFFF;}
	.st2{fill:#FF5E69;}
	.st3{fill:#277FD9;}
	.st4{fill:#DCA86E;}
	.st5{fill:url(#SVGID_1_);}
	.st6{fill:#2167BE;}
	.st7{fill:url(#SVGID_2_);}
	.st8{fill:#FEC4AD;}
	.st9{fill:url(#SVGID_3_);}
	.st10{fill:url(#SVGID_4_);}
	.st11{fill:#F8D2A1;}
	.st12{fill:none;stroke:#D4DBE2;stroke-width:0.25;stroke-miterlimit:10;}
	.st13{fill:#FFBA01;}
	.st14{fill:#D2DCEB;}
	.st15{fill:none;stroke:#A6AEBA;stroke-width:0.5;stroke-miterlimit:10;}
	.st16{fill:#50CC85;}
	.st17{fill:#77E6A6;}
	.st18{fill:#F3BA7A;}
	.st19{fill:#A6AEBA;}
	.st20{fill:#B6BFCC;}
	.st21{fill:#FFFFFF;}
</style>
<g id="BACKGROUND" class="st0">
	<rect class="st1" width="750" height="500"/>
</g>
<g id="OBJECTS">
	<g>
		<g>
			<g>
				<g>
					<path class="st2" d="M266.08,70.18h-13.97v8.8h16.5v6.83h-25.38V48.97h25.44v6.86h-16.54v7.77h13.97v6.58
						C266.09,70.18,266.08,70.18,266.08,70.18z"/>
					<path class="st2" d="M285.92,72.78h-4.8v13.03h-8.88V48.97h14.49c4.36,0,7.78,0.96,10.25,2.9s3.69,4.68,3.69,8.22
						c0,2.56-0.51,4.68-1.55,6.37c-1.04,1.69-2.66,3.06-4.88,4.09l7.69,14.87v0.38h-9.51L285.92,72.78z M281.1,65.95h5.61
						c1.69,0,2.95-0.44,3.81-1.32c0.86-0.89,1.28-2.12,1.28-3.72s-0.44-2.83-1.29-3.75c-0.86-0.9-2.12-1.35-3.79-1.35h-5.61
						L281.1,65.95L281.1,65.95z"/>
					<path class="st2" d="M319.72,72.78h-4.8v13.03h-8.88V48.97h14.49c4.36,0,7.78,0.96,10.25,2.9s3.69,4.68,3.69,8.22
						c0,2.56-0.51,4.68-1.55,6.37c-1.04,1.69-2.66,3.06-4.88,4.09l7.69,14.87v0.38h-9.51L319.72,72.78z M314.9,65.95h5.61
						c1.69,0,2.95-0.44,3.81-1.32c0.86-0.89,1.28-2.12,1.28-3.72s-0.44-2.83-1.29-3.75c-0.86-0.9-2.12-1.35-3.79-1.35h-5.61
						L314.9,65.95L314.9,65.95z"/>
					<path class="st2" d="M371.03,68.16c0,3.6-0.66,6.77-2,9.54c-1.34,2.77-3.22,4.89-5.67,6.4c-2.45,1.49-5.25,2.24-8.38,2.24
						s-5.91-0.72-8.35-2.17c-2.42-1.44-4.32-3.51-5.67-6.19c-1.35-2.68-2.08-5.76-2.14-9.24v-2.08c0-3.61,0.66-6.79,1.99-9.56
						c1.32-2.77,3.22-4.89,5.69-6.4c2.47-1.51,5.28-2.26,8.44-2.26c3.12,0,5.9,0.74,8.35,2.23c2.45,1.49,4.35,3.6,5.7,6.34
						s2.05,5.88,2.06,9.42v1.72H371.03z M362,66.61c0-3.66-0.62-6.44-1.84-8.34c-1.22-1.9-2.98-2.84-5.25-2.84
						c-4.45,0-6.8,3.34-7.06,10.02l-0.03,2.71c0,3.61,0.6,6.38,1.79,8.32c1.2,1.94,2.98,2.9,5.34,2.9c2.24,0,3.97-0.95,5.19-2.86
						c1.22-1.91,1.84-4.65,1.85-8.22L362,66.61L362,66.61z"/>
					<path class="st2" d="M389.3,72.78h-4.8v13.03h-8.88V48.97h14.49c4.36,0,7.78,0.96,10.25,2.9c2.47,1.94,3.69,4.68,3.69,8.22
						c0,2.56-0.51,4.68-1.55,6.37c-1.04,1.69-2.66,3.06-4.88,4.09l7.69,14.87v0.38h-9.51L389.3,72.78z M384.48,65.95h5.61
						c1.69,0,2.95-0.44,3.81-1.32c0.86-0.89,1.28-2.12,1.28-3.72s-0.44-2.83-1.29-3.75c-0.86-0.9-2.12-1.35-3.79-1.35h-5.61
						L384.48,65.95L384.48,65.95z"/>
					<path class="st2" d="M444.31,71.41h3.75v6.58h-3.75v7.81h-8.53v-7.81h-14.24l-0.51-5.21l14.75-23.73v-0.08h8.53V71.41z
						 M429.15,71.41h6.62V60.08l-0.53,0.86L429.15,71.41z"/>
					<path class="st2" d="M477.37,70.76c0,4.98-1.11,8.82-3.36,11.51c-2.24,2.69-5.39,4.05-9.45,4.05c-4.09,0-7.27-1.35-9.51-4.08
						c-2.24-2.71-3.37-6.55-3.37-11.48v-6.73c0-4.98,1.11-8.82,3.36-11.51c2.24-2.69,5.39-4.05,9.48-4.05s7.24,1.35,9.48,4.08
						c2.24,2.71,3.37,6.55,3.37,11.51L477.37,70.76L477.37,70.76z M468.84,62.94c0-2.65-0.35-4.62-1.04-5.93
						c-0.69-1.31-1.79-1.96-3.3-1.96c-1.46,0-2.53,0.6-3.21,1.82c-0.66,1.22-1.02,3.06-1.07,5.51v9.41c0,2.75,0.35,4.76,1.04,6.04
						c0.69,1.28,1.79,1.91,3.3,1.91c1.44,0,2.51-0.62,3.21-1.87c0.69-1.23,1.04-3.19,1.07-5.84V62.94z"/>
					<path class="st2" d="M504.31,71.41h3.75v6.58h-3.75v7.81h-8.53v-7.81h-14.24l-0.51-5.21l14.75-23.73v-0.08h8.53V71.41z
						 M489.16,71.41h6.62V60.08l-0.53,0.86L489.16,71.41z"/>
				</g>
				<g>
					<path class="st3" d="M219.77,104.73h9.98v2h-7.59v6.16h7v1.97h-7v8.38h-2.39V104.73z"/>
					<path class="st3" d="M239.48,117.42l-1.93,5.82h-2.47l6.29-18.51h2.89l6.32,18.51h-2.56l-1.97-5.82
						C246.06,117.42,239.48,117.42,239.48,117.42z M245.55,115.55l-1.81-5.33c-0.41-1.2-0.69-2.3-0.96-3.37h-0.06
						c-0.27,1.1-0.57,2.23-0.93,3.36l-1.81,5.36h5.57L245.55,115.55L245.55,115.55z"/>
					<path class="st3" d="M273.65,125.97c-2.5-0.66-4.94-1.4-7.09-2.14c-0.39-0.14-0.77-0.27-1.13-0.27
						c-4.39-0.17-8.16-3.4-8.16-9.36c0-5.93,3.63-9.75,8.62-9.75c5.03,0,8.29,3.9,8.29,9.36c0,4.76-2.2,7.8-5.27,8.86v0.11
						c1.84,0.47,3.85,0.9,5.42,1.17L273.65,125.97z M271.68,113.91c0-3.7-1.93-7.53-5.85-7.53c-4.03,0-6.02,3.73-5.99,7.75
						c-0.03,3.93,2.14,7.47,5.88,7.47C269.53,121.6,271.68,118.14,271.68,113.91z"/>
					<path class="st3" d="M286.58,104.73h2.39v12.39c0,4.92-2.42,6.43-5.6,6.43c-0.87,0-1.96-0.2-2.56-0.44l0.36-1.96
						c0.5,0.2,1.2,0.36,2,0.36c2.14,0,3.4-0.96,3.4-4.59L286.58,104.73L286.58,104.73z"/>
					<path class="st3" d="M301.43,117.42l-1.93,5.82h-2.47l6.29-18.51h2.89l6.32,18.51h-2.56l-1.97-5.82
						C308.01,117.42,301.43,117.42,301.43,117.42z M307.5,115.55l-1.81-5.33c-0.41-1.2-0.69-2.3-0.96-3.37h-0.06
						c-0.27,1.1-0.57,2.23-0.93,3.36l-1.81,5.36h5.57L307.5,115.55L307.5,115.55z"/>
					<path class="st3" d="M332.05,123.24v-18.51h2.6l5.93,9.36c1.37,2.17,2.44,4.12,3.33,6.02l0.06-0.03
						c-0.23-2.47-0.27-4.73-0.27-7.62v-7.75h2.26v18.51h-2.42l-5.88-9.39c-1.29-2.06-2.53-4.17-3.46-6.19l-0.08,0.03
						c0.14,2.33,0.2,4.56,0.2,7.63v7.92L332.05,123.24L332.05,123.24z"/>
					<path class="st3" d="M358.01,104.73v10.96c0,4.15,1.84,5.9,4.32,5.9c2.75,0,4.5-1.81,4.5-5.9v-10.96h2.42v10.79
						c0,5.69-3,8.02-7,8.02c-3.79,0-6.65-2.17-6.65-7.92v-10.91L358.01,104.73L358.01,104.73z"/>
					<path class="st3" d="M378.87,104.73h2.39v8.92h0.08c0.5-0.71,0.99-1.37,1.46-1.97l5.66-6.95h2.96l-6.7,7.86l7.22,10.66h-2.83
						l-6.1-9.09l-1.76,2.03v7.06h-2.39L378.87,104.73L378.87,104.73z"/>
					<path class="st3" d="M412.94,104.73v10.96c0,4.15,1.84,5.9,4.32,5.9c2.75,0,4.5-1.81,4.5-5.9v-10.96h2.42v10.79
						c0,5.69-3,8.02-7,8.02c-3.79,0-6.65-2.17-6.65-7.92v-10.91L412.94,104.73L412.94,104.73z"/>
					<path class="st3" d="M459.22,122.43c-1.07,0.39-3.19,1.02-5.69,1.02c-2.8,0-5.1-0.71-6.92-2.44c-1.6-1.54-2.57-4-2.57-6.89
						c0.03-5.52,3.82-9.56,10.02-9.56c2.14,0,3.82,0.47,4.62,0.86l-0.57,1.96c-0.99-0.44-2.23-0.8-4.09-0.8
						c-4.5,0-7.45,2.8-7.45,7.45c0,4.7,2.83,7.47,7.15,7.47c1.57,0,2.63-0.23,3.19-0.5v-5.52h-3.76v-1.93h6.1L459.22,122.43
						L459.22,122.43z"/>
					<path class="st3" d="M472.15,104.73h2.39v12.39c0,4.92-2.42,6.43-5.6,6.43c-0.87,0-1.96-0.2-2.56-0.44l0.36-1.96
						c0.5,0.2,1.2,0.36,2,0.36c2.14,0,3.4-0.96,3.4-4.59L472.15,104.73L472.15,104.73z"/>
					<path class="st3" d="M493.6,114.57h-7.19v6.68h8.02v2h-10.42v-18.51H494v2h-7.62v5.85h7.19v1.97H493.6z"/>
					<path class="st3" d="M506.98,106.76h-5.63v-2.03h13.71v2.03h-5.66v16.48h-2.42V106.76z"/>
					<path class="st3" d="M522.04,121.84c0-0.99,0.69-1.7,1.63-1.7c0.99,0,1.63,0.71,1.63,1.7c0,0.96-0.63,1.7-1.63,1.7
						C522.71,123.54,522.04,122.81,522.04,121.84z M522.74,117.92l-0.39-13.18h2.63l-0.39,13.18H522.74z"/>
				</g>
			</g>
			<g>
				<polygon class="st4" points="635.9,381.41 685.36,488.31 690.93,488.3 648.17,374.47 				"/>
				<polygon class="st4" points="584.74,383.69 535.29,488.31 529.7,488.3 572.48,381.32 				"/>
				
					<linearGradient id="SVGID_1_" gradientUnits="userSpaceOnUse" x1="706.8715" y1="738.7538" x2="750.3428" y2="738.7538" gradientTransform="matrix(0.8061 0.5918 -0.5918 0.8061 282.8381 -562.4751)">
					<stop  offset="0" style="stop-color:#343A44"/>
					<stop  offset="0.3009" style="stop-color:#232D3E"/>
					<stop  offset="0.6391" style="stop-color:#182439"/>
					<stop  offset="1" style="stop-color:#142138"/>
				</linearGradient>
				<path class="st5" d="M459.07,465.4l-25.13,22l-29.63-20.86c0,0,10.08-3.39,27.38,1.22l17.7-14.87L459.07,465.4z"/>
				<path class="st6" d="M604.6,344.07c0,0-55.55,28.48-75.19,36.99c-19.63,8.52-86.41,75.39-86.41,75.39s8.55,17.41,12.82,14.36
					c37.7-26.96,72.44-51.08,94.76-59.49c44.2-16.66,56.51-20.29,67.85-33.41C618.43,377.9,611.79,362.13,604.6,344.07z"/>
				<g>
					
						<linearGradient id="SVGID_2_" gradientUnits="userSpaceOnUse" x1="474.5595" y1="758.6697" x2="518.0256" y2="758.6697" gradientTransform="matrix(1 0 0 1 0 -290)">
						<stop  offset="0" style="stop-color:#343A44"/>
						<stop  offset="0.3009" style="stop-color:#232D3E"/>
						<stop  offset="0.6391" style="stop-color:#182439"/>
						<stop  offset="1" style="stop-color:#142138"/>
					</linearGradient>
					<path class="st7" d="M518.03,454.18l-7.24,32.61l-36.23,0.72c0,0,6.13-8.7,22.8-15.22l5.46-22.47L518.03,454.18z"/>
					<path class="st3" d="M605.94,336.83c0,0-51.68,5.57-70.53,15.73c-18.84,10.14-33.83,103.19-33.83,103.19s14.63,7.95,16.45,3.01
						c14.61-39.79,30.82-70.96,30.82-70.96c18.57-3.39,61.57,17.53,92.67-13.08C641.52,374.69,614.64,354.23,605.94,336.83z"/>
				</g>
				<g>
					<path class="st8" d="M694.99,274.01c0,0-3.73,6.19-6.08,13.92l-21.25-1.96c0,0,10.97-16.63,10.13-26.71L694.99,274.01z"/>
					<g>
						<path class="st8" d="M690.43,239.66c-1.2-0.32-5.75-1.57-6.67-1.2c-1.28,0.53,0.21,2.2-0.69,3.21
							c-1.44,1.66-4.36,1.69-6.23,2.69c-2.27,1.22-4,2.81-5.04,4.64c-1.73,3.04,4.58,9.83,5.55,14.92
							c2.06,10.64,15.52,12.22,26.44,8.96c3.91-1.16,7.5-4.68,9.63-8.08c2.5-4,1.1-10.7-1.01-14.69c-1.26-2.39-3.75-4.45-5.93-5.96
							c-1.97-1.35-2.51-7.01-4.89-7.4C701.61,236.74,693.14,240.38,690.43,239.66z"/>
					</g>
					
						<linearGradient id="SVGID_3_" gradientUnits="userSpaceOnUse" x1="330.1444" y1="401.7716" x2="377.2924" y2="401.7716" gradientTransform="matrix(-0.6574 -0.7535 -0.7535 0.6574 1239.8326 255.8436)">
						<stop  offset="0" style="stop-color:#343A44"/>
						<stop  offset="0.3009" style="stop-color:#232D3E"/>
						<stop  offset="0.6391" style="stop-color:#182439"/>
						<stop  offset="1" style="stop-color:#142138"/>
					</linearGradient>
					<path class="st9" d="M720.94,268.23c0.03,0.02-0.36-1.79,2.71-4.7c10.2-9.6-0.71-28.39-11.83-31.65
						c-5.69-1.67-9.32,0.09-11.36-5.55c0.15,0.41-2.3,1.44-2.54,1.64c-1.34,1.13-1.97,1.93-2.02,3.79
						c-0.18,8.2,7.16,15.85,12.72,21.03c2.5,2.32-3.66,0.72-6.13,1.19c-1.61,0.32-5.81,4.73-6.7,5.4c2.33,2.9,4.41,0.29,7.56,1.69
						c2.9,1.29,1.07,5-1.64,5.43c-4.2,0.68-5.9-2.09-5.9-2.09c-1.93,1.04-2.23,7.27-3.73,8.89c2.08,1.14,14.24,3.28,17.08,3.25
						C715.25,276.47,718.98,273.1,720.94,268.23z"/>
				</g>
				<path class="st2" d="M694.3,277.32c4.46,49.71-52.78,97.38-52.78,97.38s-37.37,1.4-35.58-37.87c0,0,2.9-7.13,26.05-28.11
					c15.46-14.01,26.32-34.92,37.19-34.5C698.89,275.36,694.3,277.32,694.3,277.32z"/>
				
					<linearGradient id="SVGID_4_" gradientUnits="userSpaceOnUse" x1="555.4714" y1="623.0209" x2="699.6107" y2="623.0209" gradientTransform="matrix(1 0 0 1 0 -290)">
					<stop  offset="0" style="stop-color:#343A44"/>
					<stop  offset="0.3009" style="stop-color:#232D3E"/>
					<stop  offset="0.6391" style="stop-color:#182439"/>
					<stop  offset="1" style="stop-color:#142138"/>
				</linearGradient>
				<path class="st10" d="M555.47,377.43c0,0,34.47,12.85,80.42-4.58c45.95-17.43,58.47-98.81,58.47-98.81l5.25,2.66
					c0,0-5.12,89.79-65.61,109.31c-46.24,14.92-78.53-2.84-78.53-2.84L555.47,377.43L555.47,377.43z"/>
				<g>
					<path class="st11" d="M688.77,326.98c0,0,5.51,19.07,5.81,28.58c0.3,9.51-3.76,41.78-3.76,41.78l8.76,1.11
						c0,0,7.78-38.47,7.96-51.02c0.18-12.55-7.06-32.9-7.06-32.9L688.77,326.98z"/>
					<path class="st2" d="M688.23,327.78c6.35,27.77,3.72,65,3.72,65l9.5,0.6c10.41-21.79,9.44-70.08,3.93-90.38
						c-3.24-11.94-5.15-23.96-13.21-25.83c-5.04-1.16-15.43,2.53-16.83,7.53C672.32,295.54,685.1,314.16,688.23,327.78z"/>
					<path class="st11" d="M686.91,402.15c-2.09,3.99-3.04,6.92-1.81,7.93c0.86,0.69,2.23-3.18,3.88-4.56
						c0.48,1.61,0.56,4.64-0.48,7.18c-1.17,2.87-1.07,5.34,1.11,5.55c2.18,0.21,5.75,0.08,6.53-1.75c0.8-1.81,2.59-9.38,3.57-11.89
						c0.98-2.51-0.32-5.4,0.06-6.85c0.38-1.44-6.46-3.85-6.46-3.85c-0.38,0.57-2.48,3.45-2.48,3.45s-1.78,2.12-2.38,2.51
						C687.83,400.23,686.91,402.15,686.91,402.15z"/>
				</g>
			</g>
			<g>
				<line class="st12" x1="635.04" y1="11.75" x2="635.04" y2="77.97"/>
				<path class="st13" d="M646.77,103.44c-0.5,6.4-6.08,11.18-12.48,10.69c-6.4-0.5-11.18-6.08-10.69-12.48
					c0.5-6.4,6.08-11.18,12.48-10.69C642.48,91.46,647.26,97.04,646.77,103.44z"/>
				<polygon class="st14" points="689.89,107.47 580.21,107.47 628.21,72.55 641.89,72.55 				"/>
			</g>
			<g>
				<line class="st12" x1="118.72" y1="11.75" x2="118.72" y2="77.97"/>
				<path class="st13" d="M130.44,103.44c-0.5,6.4-6.08,11.18-12.48,10.69s-11.18-6.08-10.69-12.48c0.5-6.4,6.08-11.18,12.48-10.69
					C126.15,91.46,130.94,97.04,130.44,103.44z"/>
				<polygon class="st14" points="173.55,107.47 63.87,107.47 111.87,72.55 125.55,72.55 				"/>
			</g>
			<line class="st15" x1="0" y1="487.78" x2="750" y2="487.78"/>
			<g>
				<g>
					<g>
						<path class="st16" d="M272.64,257.37c0,0,2.32-5.66,6.52-10.72c4.2-5.04,10.48-13.46,10.48-13.46s-3.06,5.98-7.21,12.73
							C278.27,252.71,272.64,257.37,272.64,257.37z"/>
						<path class="st16" d="M276.99,247.53c0,0,4.65-3.66,7.45-11.39c2.8-7.74,5.34-13.64,5.34-13.64s-6.04,8.64-8.64,14.61
							C278.56,243.11,276.99,247.53,276.99,247.53z"/>
						<path class="st16" d="M272.96,256.28c0,0,2.44-8.85,2.92-15.92s0.42-11.5,0.42-11.5s-3.07,12.82-4,18.27
							C271.36,252.57,272.96,256.28,272.96,256.28z"/>
						<path class="st16" d="M270.87,262.16c0,0,0.78-9.12-1.79-17.28c-2.56-8.16-2.71-13.33-2.71-13.33s-1.23,8.53,0.23,15.89
							C268.07,254.82,270.87,262.16,270.87,262.16z"/>
						<path class="st16" d="M271.62,260.14c0,0,6.47-5.52,9.75-6.83c3.28-1.29,7.83-5.09,7.83-5.09s-5.63,7.21-8.77,8.62
							C277.29,258.28,271.62,260.14,271.62,260.14z"/>
						<path class="st16" d="M269.39,267.88c0,0,0.63-4.98-2.27-12.04c-2.89-7.06-3.57-10.55-3.57-10.55s-0.17,9.57,1.73,13.17
							C267.19,262.07,269.39,267.88,269.39,267.88z"/>
						<path class="st16" d="M269.99,264.25c0,0,3.72-2.48,7.31-2.98s4.55-0.99,4.55-0.99s-1.82,3.31-6.25,3.87
							C271.18,264.72,269.99,264.25,269.99,264.25z"/>
						<path class="st16" d="M267.55,272.64c0.8-3.13,1.84-7.98,2.9-11.2c2.36-7.13,7.96-16.33,7.96-16.33
							c-3.42,7.59-5.93,11.86-7.65,18.41c-0.68,2.59-1.87,6.2-2.5,8.55C268.19,272.7,267.66,273.24,267.55,272.64z"/>
					</g>
					<g>
						<path class="st17" d="M269.21,259.93c0,0-0.36-6.49-2.84-13.02c-2.48-6.53-5.87-17.14-5.87-17.14s1.01,7.07,2.83,15.29
							C265.16,253.3,269.21,259.93,269.21,259.93z"/>
						<path class="st17" d="M268.25,248.52c0,0-3.42-5.28-3.55-14.03c-0.14-8.74-0.65-15.55-0.65-15.55s3.09,10.78,3.61,17.68
							C268.2,243.54,268.25,248.52,268.25,248.52z"/>
						<path class="st17" d="M269.27,258.71c0,0,0.62-9.74,2.57-17.01c1.97-7.27,3.55-11.71,3.55-11.71s-1.35,13.95-2.3,19.75
							C272.14,255.54,269.27,258.71,269.27,258.71z"/>
						<path class="st17" d="M269.33,265.35c0,0,2.38-9.44,7.77-16.75c5.4-7.31,7.33-12.46,7.33-12.46s-1.72,9.02-5.73,15.91
							C274.69,258.92,269.33,265.35,269.33,265.35z"/>
						<path class="st17" d="M269.27,263.06c0,0-4.59-7.8-7.43-10.23c-2.84-2.44-6.11-7.83-6.11-7.83s3.16,9.18,5.82,11.71
							C264.21,259.23,269.27,263.06,269.27,263.06z"/>
						<path class="st17" d="M268.85,271.61c0,0,1.1-5.22,6.44-11.32c5.34-6.1,7.22-9.36,7.22-9.36s-3.15,9.69-6.29,12.64
							C273.06,266.53,268.85,271.61,268.85,271.61z"/>
						<path class="st17" d="M269.5,267.76c0,0-2.87-3.78-6.32-5.54c-3.43-1.75-4.23-2.57-4.23-2.57s0.68,3.96,4.94,6.05
							C268.14,267.8,269.5,267.76,269.5,267.76z"/>
						<path class="st16" d="M269.04,277.02c0.27-3.43,0.9-8.65,0.95-12.27c0.11-7.99-2.35-19.17-2.35-19.17
							c0.81,8.82,1.85,13.97,1.31,21.15c-0.21,2.84-0.27,6.88-0.45,9.45C268.4,276.88,268.73,277.6,269.04,277.02z"/>
					</g>
					<g>
						<path class="st16" d="M264.29,261.27c0,0-2.32-5.66-6.52-10.72c-4.2-5.04-10.48-13.46-10.48-13.46s3.06,5.98,7.21,12.73
							C258.66,256.61,264.29,261.27,264.29,261.27z"/>
						<path class="st16" d="M259.94,251.43c0,0-4.65-3.66-7.45-11.39c-2.8-7.74-5.34-13.64-5.34-13.64s6.04,8.64,8.64,14.61
							C258.37,247,259.94,251.43,259.94,251.43z"/>
						<path class="st16" d="M263.97,260.17c0,0-2.44-8.85-2.92-15.92c-0.48-7.07-0.42-11.5-0.42-11.5s3.07,12.82,4,18.27
							C265.55,256.47,263.97,260.17,263.97,260.17z"/>
						<path class="st16" d="M266.05,266.06c0,0-0.78-9.12,1.78-17.28s2.71-13.33,2.71-13.33s1.23,8.53-0.23,15.89
							C268.85,258.71,266.05,266.06,266.05,266.06z"/>
						<path class="st16" d="M265.3,264.04c0,0-6.47-5.52-9.75-6.83c-3.28-1.29-7.83-5.09-7.83-5.09s5.63,7.21,8.77,8.62
							C259.62,262.18,265.3,264.04,265.3,264.04z"/>
						<path class="st16" d="M267.54,271.78c0,0-0.63-4.98,2.27-12.04c2.89-7.06,3.57-10.55,3.57-10.55s0.17,9.57-1.73,13.17
							C269.74,265.97,267.54,271.78,267.54,271.78z"/>
						<path class="st16" d="M266.94,268.15c0,0-3.72-2.48-7.31-2.98c-3.58-0.5-4.55-0.99-4.55-0.99s1.82,3.31,6.25,3.87
							C265.75,268.62,266.94,268.15,266.94,268.15z"/>
						<path class="st16" d="M269.36,276.53c-0.8-3.13-1.84-7.98-2.9-11.2c-2.36-7.13-7.96-16.33-7.96-16.33
							c3.42,7.59,5.93,11.86,7.65,18.41c0.68,2.59,1.87,6.2,2.5,8.55C268.74,276.59,269.25,277.14,269.36,276.53z"/>
					</g>
					<polygon class="st14" points="277.59,298.39 260.03,298.39 254.61,267.46 283.64,267.46 					"/>
				</g>
				<g>
					<g>
						<polygon class="st4" points="478.2,306.89 507.16,487.95 512.74,487.93 489.82,306.85 						"/>
						<polygon class="st4" points="278.57,306.97 240.85,488.22 233.36,488.24 262.92,307.01 						"/>
					</g>
					<rect x="219.21" y="296.31" class="st4" width="311.59" height="13.95"/>
					<rect x="204.27" y="296.31" class="st18" width="341.47" height="9.26"/>
				</g>
				<g>
					<g>
						<polygon class="st19" points="450.24,291.42 438.12,291.42 426.01,214.1 435.22,214.1 						"/>
						<polygon class="st14" points="446.76,291.42 399.46,291.42 387.34,214.1 434.65,214.1 						"/>
						<rect x="398.83" y="289.67" class="st14" width="51.41" height="5.76"/>
						<rect x="450.24" y="289.67" class="st19" width="64.82" height="5.76"/>
						<path class="st19" d="M420.78,256.52c1.37,5.91,0.41,12.31-2.15,14.28c-2.56,1.97-5.73-1.23-7.1-7.15
							c-1.37-5.91-0.41-12.31,2.15-14.28C416.24,247.4,419.41,250.6,420.78,256.52z"/>
					</g>
				</g>
				<g>
					<path class="st19" d="M347.2,295.17h-6.71c-2.77,0-5.13-2.02-5.55-4.76l-2.68-17.26h23.18l-2.68,17.26
						C352.33,293.15,349.99,295.17,347.2,295.17z"/>
					<g>
						<path class="st19" d="M353.42,291.49c-0.24,0-0.48-0.02-0.74-0.03l-0.32-0.03l-0.26-0.2c-0.17-0.12-4.08-3.19-4.08-7.59
							c0-4.49,2.98-8.14,6.65-8.14c2.21,0,4.18,0.84,5.4,2.29c0.87,1.04,1.79,2.93,1.23,6.04l0,0
							C360.45,288.74,357.57,291.49,353.42,291.49z M353.18,289.37c4.23,0.14,5.57-3.12,6.07-5.9l0,0c0.33-1.85,0.08-3.3-0.78-4.3
							c-0.81-0.98-2.2-1.54-3.78-1.54c-2.5,0-4.55,2.71-4.55,6.04C350.15,286.47,352.42,288.71,353.18,289.37z"/>
					</g>
				</g>
				<polygon class="st14" points="329.95,296.69 359.33,296.69 364.01,291.49 325.27,291.49 				"/>
			</g>
			<g>
				<rect x="33.7" y="183.82" class="st20" width="140.57" height="304.08"/>
				<rect x="49.88" y="197.11" class="st14" width="108.21" height="31.88"/>
				<path class="st21" d="M116.93,216.92H91.04c-0.66,0-1.2-0.54-1.2-1.2v-5.33c0-0.66,0.54-1.2,1.2-1.2h25.89
					c0.66,0,1.2,0.54,1.2,1.2v5.33C118.13,216.38,117.59,216.92,116.93,216.92z"/>
				<rect x="49.88" y="237.69" class="st14" width="108.21" height="31.88"/>
				<path class="st21" d="M116.93,257.5H91.04c-0.66,0-1.2-0.54-1.2-1.2v-5.33c0-0.66,0.54-1.2,1.2-1.2h25.89
					c0.66,0,1.2,0.54,1.2,1.2v5.33C118.13,256.95,117.59,257.5,116.93,257.5z"/>
				<rect x="49.88" y="278.26" class="st14" width="108.21" height="31.88"/>
				<path class="st21" d="M116.93,298.07H91.04c-0.66,0-1.2-0.54-1.2-1.2v-5.33c0-0.66,0.54-1.2,1.2-1.2h25.89
					c0.66,0,1.2,0.54,1.2,1.2v5.33C118.13,297.53,117.59,298.07,116.93,298.07z"/>
				<rect x="49.88" y="319.29" class="st14" width="108.21" height="156.29"/>
				<path class="st21" d="M116.93,339.1H91.04c-0.66,0-1.2-0.54-1.2-1.2v-5.33c0-0.66,0.54-1.2,1.2-1.2h25.89
					c0.66,0,1.2,0.54,1.2,1.2v5.33C118.13,338.56,117.59,339.1,116.93,339.1z"/>
			</g>
		</g>
	</g>
</g>
<g id="DESIGNED_BY_FREEPIK" class="st0">
</g>
</svg>
